%TF.GenerationSoftware,KiCad,Pcbnew,9.0.6*%
%TF.CreationDate,2026-03-23T18:07:46+00:00*%
%TF.ProjectId,Recept,52656365-7074-42e6-9b69-6361645f7063,rev?*%
%TF.SameCoordinates,Original*%
%TF.FileFunction,Other,User*%
%FSLAX46Y46*%
G04 Gerber Fmt 4.6, Leading zero omitted, Abs format (unit mm)*
G04 Created by KiCad (PCBNEW 9.0.6) date 2026-03-23 18:07:46*
%MOMM*%
%LPD*%
G01*
G04 APERTURE LIST*
%ADD10C,0.050000*%
G04 APERTURE END LIST*
D10*
%TO.C,C98*%
X117700000Y-93850000D02*
X122300000Y-93850000D01*
X117700000Y-96150000D02*
X117700000Y-93850000D01*
X122300000Y-93850000D02*
X122300000Y-96150000D01*
X122300000Y-96150000D02*
X117700000Y-96150000D01*
%TO.C,R7*%
X132530000Y-56070000D02*
X133470000Y-56070000D01*
X132530000Y-57930000D02*
X132530000Y-56070000D01*
X133470000Y-56070000D02*
X133470000Y-57930000D01*
X133470000Y-57930000D02*
X132530000Y-57930000D01*
%TO.C,C91*%
X104770000Y-84270000D02*
X106230000Y-84270000D01*
X104770000Y-87230000D02*
X104770000Y-84270000D01*
X106230000Y-84270000D02*
X106230000Y-87230000D01*
X106230000Y-87230000D02*
X104770000Y-87230000D01*
%TO.C,C99*%
X93182099Y-101267353D02*
X94642099Y-101267353D01*
X93182099Y-104227353D02*
X93182099Y-101267353D01*
X94642099Y-101267353D02*
X94642099Y-104227353D01*
X94642099Y-104227353D02*
X93182099Y-104227353D01*
%TO.C,R93*%
X122570000Y-91530000D02*
X124430000Y-91530000D01*
X122570000Y-92470000D02*
X122570000Y-91530000D01*
X124430000Y-91530000D02*
X124430000Y-92470000D01*
X124430000Y-92470000D02*
X122570000Y-92470000D01*
%TO.C,C5*%
X135531264Y-73931802D02*
X136181802Y-73281264D01*
X136181802Y-73281264D02*
X137468736Y-74568198D01*
X136818198Y-75218736D02*
X135531264Y-73931802D01*
X137468736Y-74568198D02*
X136818198Y-75218736D01*
%TO.C,D10*%
X118500000Y-96350000D02*
X123000000Y-96350000D01*
X118500000Y-103650000D02*
X118500000Y-96350000D01*
X123000000Y-96350000D02*
X123000000Y-103650000D01*
X123000000Y-103650000D02*
X118500000Y-103650000D01*
%TO.C,C94*%
X88020000Y-52020000D02*
X90980000Y-52020000D01*
X88020000Y-53480000D02*
X88020000Y-52020000D01*
X90980000Y-52020000D02*
X90980000Y-53480000D01*
X90980000Y-53480000D02*
X88020000Y-53480000D01*
%TO.C,C113*%
X92281264Y-76318198D02*
X93568198Y-75031264D01*
X92931802Y-76968736D02*
X92281264Y-76318198D01*
X93568198Y-75031264D02*
X94218736Y-75681802D01*
X94218736Y-75681802D02*
X92931802Y-76968736D01*
%TO.C,C109*%
X101631264Y-67918198D02*
X102918198Y-66631264D01*
X102281802Y-68568736D02*
X101631264Y-67918198D01*
X102918198Y-66631264D02*
X103568736Y-67281802D01*
X103568736Y-67281802D02*
X102281802Y-68568736D01*
%TO.C,C93*%
X94270000Y-46520000D02*
X95730000Y-46520000D01*
X94270000Y-49480000D02*
X94270000Y-46520000D01*
X95730000Y-46520000D02*
X95730000Y-49480000D01*
X95730000Y-49480000D02*
X94270000Y-49480000D01*
%TO.C,C118*%
X96540000Y-42840000D02*
X97460000Y-42840000D01*
X96540000Y-44660000D02*
X96540000Y-42840000D01*
X97460000Y-42840000D02*
X97460000Y-44660000D01*
X97460000Y-44660000D02*
X96540000Y-44660000D01*
%TO.C,R1*%
X138530000Y-56070000D02*
X139470000Y-56070000D01*
X138530000Y-57930000D02*
X138530000Y-56070000D01*
X139470000Y-56070000D02*
X139470000Y-57930000D01*
X139470000Y-57930000D02*
X138530000Y-57930000D01*
%TO.C,C87*%
X131620000Y-96245000D02*
X134580000Y-96245000D01*
X131620000Y-97705000D02*
X131620000Y-96245000D01*
X134580000Y-96245000D02*
X134580000Y-97705000D01*
X134580000Y-97705000D02*
X131620000Y-97705000D01*
%TO.C,R94*%
X121530000Y-87820000D02*
X122470000Y-87820000D01*
X121530000Y-89680000D02*
X121530000Y-87820000D01*
X122470000Y-87820000D02*
X122470000Y-89680000D01*
X122470000Y-89680000D02*
X121530000Y-89680000D01*
%TO.C,C6*%
X133031264Y-77318198D02*
X134318198Y-76031264D01*
X133681802Y-77968736D02*
X133031264Y-77318198D01*
X134318198Y-76031264D02*
X134968736Y-76681802D01*
X134968736Y-76681802D02*
X133681802Y-77968736D01*
%TO.C,U1*%
X128065328Y-70000000D02*
X128631014Y-69434315D01*
X128362313Y-69165614D02*
X132534243Y-64993684D01*
X128362313Y-70834386D02*
X128631014Y-70565685D01*
X128631014Y-69434315D02*
X128362313Y-69165614D01*
X128631014Y-70565685D02*
X128065328Y-70000000D01*
X132534243Y-64993684D02*
X132802944Y-65262385D01*
X132534243Y-75006316D02*
X128362313Y-70834386D01*
X132802944Y-65262385D02*
X133368629Y-64696699D01*
X132802944Y-74737615D02*
X132534243Y-75006316D01*
X133368629Y-64696699D02*
X133934314Y-65262385D01*
X133368629Y-75303301D02*
X132802944Y-74737615D01*
X133934314Y-65262385D02*
X134203015Y-64993684D01*
X133934314Y-74737615D02*
X133368629Y-75303301D01*
X134203015Y-64993684D02*
X138374945Y-69165614D01*
X134203015Y-75006316D02*
X133934314Y-74737615D01*
X138106244Y-69434315D02*
X138671930Y-70000000D01*
X138106244Y-70565685D02*
X138374945Y-70834386D01*
X138374945Y-69165614D02*
X138106244Y-69434315D01*
X138374945Y-70834386D02*
X134203015Y-75006316D01*
X138671930Y-70000000D02*
X138106244Y-70565685D01*
%TO.C,C89*%
X139320000Y-94925000D02*
X141280000Y-94925000D01*
X139320000Y-98325000D02*
X139320000Y-94925000D01*
X141280000Y-94925000D02*
X141280000Y-98325000D01*
X141280000Y-98325000D02*
X139320000Y-98325000D01*
%TO.C,R70*%
X129370000Y-101655000D02*
X131230000Y-101655000D01*
X129370000Y-102595000D02*
X129370000Y-101655000D01*
X131230000Y-101655000D02*
X131230000Y-102595000D01*
X131230000Y-102595000D02*
X129370000Y-102595000D01*
%TO.C,R8*%
X131530000Y-56070000D02*
X132470000Y-56070000D01*
X131530000Y-57930000D02*
X131530000Y-56070000D01*
X132470000Y-56070000D02*
X132470000Y-57930000D01*
X132470000Y-57930000D02*
X131530000Y-57930000D01*
%TO.C,C114*%
X89781264Y-75431802D02*
X90431802Y-74781264D01*
X90431802Y-74781264D02*
X91718736Y-76068198D01*
X91068198Y-76718736D02*
X89781264Y-75431802D01*
X91718736Y-76068198D02*
X91068198Y-76718736D01*
%TO.C,R105*%
X119050000Y-92730000D02*
X120910000Y-92730000D01*
X119050000Y-93670000D02*
X119050000Y-92730000D01*
X120910000Y-92730000D02*
X120910000Y-93670000D01*
X120910000Y-93670000D02*
X119050000Y-93670000D01*
%TO.C,C111*%
X99281264Y-66568198D02*
X100568198Y-65281264D01*
X99931802Y-67218736D02*
X99281264Y-66568198D01*
X100568198Y-65281264D02*
X101218736Y-65931802D01*
X101218736Y-65931802D02*
X99931802Y-67218736D01*
%TO.C,C8*%
X134781264Y-74681802D02*
X135431802Y-74031264D01*
X135431802Y-74031264D02*
X136718736Y-75318198D01*
X136068198Y-75968736D02*
X134781264Y-74681802D01*
X136718736Y-75318198D02*
X136068198Y-75968736D01*
%TO.C,R57*%
X90185000Y-92780000D02*
X92045000Y-92780000D01*
X90185000Y-93720000D02*
X90185000Y-92780000D01*
X92045000Y-92780000D02*
X92045000Y-93720000D01*
X92045000Y-93720000D02*
X90185000Y-93720000D01*
%TO.C,J1*%
X100230000Y-98455000D02*
X100230000Y-104545000D01*
X100230000Y-104545000D02*
X103770000Y-104545000D01*
X103770000Y-98455000D02*
X100230000Y-98455000D01*
X103770000Y-104545000D02*
X103770000Y-98455000D01*
%TO.C,R14*%
X138899427Y-67064107D02*
X139564107Y-66399427D01*
X139564107Y-66399427D02*
X140879325Y-67714645D01*
X140214645Y-68379325D02*
X138899427Y-67064107D01*
X140879325Y-67714645D02*
X140214645Y-68379325D01*
%TO.C,R71*%
X131420000Y-102655000D02*
X133280000Y-102655000D01*
X131420000Y-103595000D02*
X131420000Y-102655000D01*
X133280000Y-102655000D02*
X133280000Y-103595000D01*
X133280000Y-103595000D02*
X131420000Y-103595000D01*
%TO.C,R15*%
X139149427Y-65814107D02*
X139814107Y-65149427D01*
X139814107Y-65149427D02*
X141129325Y-66464645D01*
X140464645Y-67129325D02*
X139149427Y-65814107D01*
X141129325Y-66464645D02*
X140464645Y-67129325D01*
%TO.C,R2*%
X137530000Y-56070000D02*
X138470000Y-56070000D01*
X137530000Y-57930000D02*
X137530000Y-56070000D01*
X138470000Y-56070000D02*
X138470000Y-57930000D01*
X138470000Y-57930000D02*
X137530000Y-57930000D01*
%TO.C,U22*%
X90196699Y-70750000D02*
X90635105Y-70311594D01*
X90366405Y-70042893D02*
X94792893Y-65616405D01*
X90366405Y-71457107D02*
X90635105Y-71188406D01*
X90635105Y-70311594D02*
X90366405Y-70042893D01*
X90635105Y-71188406D02*
X90196699Y-70750000D01*
X94792893Y-65616405D02*
X95061594Y-65885105D01*
X94792893Y-75883595D02*
X90366405Y-71457107D01*
X95061594Y-65885105D02*
X95500000Y-65446699D01*
X95061594Y-75614895D02*
X94792893Y-75883595D01*
X95500000Y-65446699D02*
X95938406Y-65885105D01*
X95500000Y-76053301D02*
X95061594Y-75614895D01*
X95938406Y-65885105D02*
X96207107Y-65616405D01*
X95938406Y-75614895D02*
X95500000Y-76053301D01*
X96207107Y-65616405D02*
X100633595Y-70042893D01*
X96207107Y-75883595D02*
X95938406Y-75614895D01*
X100364895Y-70311594D02*
X100803301Y-70750000D01*
X100364895Y-71188406D02*
X100633595Y-71457107D01*
X100633595Y-70042893D02*
X100364895Y-70311594D01*
X100633595Y-71457107D02*
X96207107Y-75883595D01*
X100803301Y-70750000D02*
X100364895Y-71188406D01*
%TO.C,C7*%
X132281264Y-76568198D02*
X133568198Y-75281264D01*
X132931802Y-77218736D02*
X132281264Y-76568198D01*
X133568198Y-75281264D02*
X134218736Y-75931802D01*
X134218736Y-75931802D02*
X132931802Y-77218736D01*
%TO.C,C81*%
X88905000Y-96840000D02*
X89825000Y-96840000D01*
X88905000Y-98660000D02*
X88905000Y-96840000D01*
X89825000Y-96840000D02*
X89825000Y-98660000D01*
X89825000Y-98660000D02*
X88905000Y-98660000D01*
%TO.C,C106*%
X85281264Y-66218269D02*
X86568198Y-64931335D01*
X85931802Y-66868807D02*
X85281264Y-66218269D01*
X86568198Y-64931335D02*
X87218736Y-65581873D01*
X87218736Y-65581873D02*
X85931802Y-66868807D01*
%TO.C,C112*%
X93031264Y-77068198D02*
X94318198Y-75781264D01*
X93681802Y-77718736D02*
X93031264Y-77068198D01*
X94318198Y-75781264D02*
X94968736Y-76431802D01*
X94968736Y-76431802D02*
X93681802Y-77718736D01*
%TO.C,C96*%
X144531264Y-58818198D02*
X145818198Y-57531264D01*
X145181802Y-59468736D02*
X144531264Y-58818198D01*
X145818198Y-57531264D02*
X146468736Y-58181802D01*
X146468736Y-58181802D02*
X145181802Y-59468736D01*
%TO.C,C82*%
X88905000Y-91340000D02*
X89825000Y-91340000D01*
X88905000Y-93160000D02*
X88905000Y-91340000D01*
X89825000Y-91340000D02*
X89825000Y-93160000D01*
X89825000Y-93160000D02*
X88905000Y-93160000D01*
%TO.C,C12*%
X96781264Y-65568198D02*
X98068198Y-64281264D01*
X97431802Y-66218736D02*
X96781264Y-65568198D01*
X98068198Y-64281264D02*
X98718736Y-64931802D01*
X98718736Y-64931802D02*
X97431802Y-66218736D01*
%TO.C,R107*%
X97780000Y-45560000D02*
X98720000Y-45560000D01*
X97780000Y-47420000D02*
X97780000Y-45560000D01*
X98720000Y-45560000D02*
X98720000Y-47420000D01*
X98720000Y-47420000D02*
X97780000Y-47420000D01*
%TO.C,C103*%
X136281264Y-76068198D02*
X137568198Y-74781264D01*
X136931802Y-76718736D02*
X136281264Y-76068198D01*
X137568198Y-74781264D02*
X138218736Y-75431802D01*
X138218736Y-75431802D02*
X136931802Y-76718736D01*
%TO.C,C100*%
X93202099Y-99267353D02*
X96162099Y-99267353D01*
X93202099Y-100727353D02*
X93202099Y-99267353D01*
X96162099Y-99267353D02*
X96162099Y-100727353D01*
X96162099Y-100727353D02*
X93202099Y-100727353D01*
%TO.C,SW1*%
X139247309Y-60792893D02*
X141792893Y-58247309D01*
X141792893Y-58247309D02*
X145752691Y-62207107D01*
X143207107Y-64752691D02*
X139247309Y-60792893D01*
X145752691Y-62207107D02*
X143207107Y-64752691D01*
%TO.C,R16*%
X133260051Y-64075269D02*
X134575269Y-62760051D01*
X133924731Y-64739949D02*
X133260051Y-64075269D01*
X134575269Y-62760051D02*
X135239949Y-63424731D01*
X135239949Y-63424731D02*
X133924731Y-64739949D01*
%TO.C,R111*%
X140820000Y-93030000D02*
X142680000Y-93030000D01*
X140820000Y-93970000D02*
X140820000Y-93030000D01*
X142680000Y-93030000D02*
X142680000Y-93970000D01*
X142680000Y-93970000D02*
X140820000Y-93970000D01*
%TO.C,R116*%
X140820000Y-88030000D02*
X142680000Y-88030000D01*
X140820000Y-88970000D02*
X140820000Y-88030000D01*
X142680000Y-88030000D02*
X142680000Y-88970000D01*
X142680000Y-88970000D02*
X140820000Y-88970000D01*
%TO.C,C117*%
X94531264Y-64818198D02*
X95818198Y-63531264D01*
X95181802Y-65468736D02*
X94531264Y-64818198D01*
X95818198Y-63531264D02*
X96468736Y-64181802D01*
X96468736Y-64181802D02*
X95181802Y-65468736D01*
%TO.C,C10*%
X144040000Y-79840000D02*
X144960000Y-79840000D01*
X144040000Y-81660000D02*
X144040000Y-79840000D01*
X144960000Y-79840000D02*
X144960000Y-81660000D01*
X144960000Y-81660000D02*
X144040000Y-81660000D01*
%TO.C,C84*%
X124070000Y-94925000D02*
X126030000Y-94925000D01*
X124070000Y-98325000D02*
X124070000Y-94925000D01*
X126030000Y-94925000D02*
X126030000Y-98325000D01*
X126030000Y-98325000D02*
X124070000Y-98325000D01*
%TO.C,C115*%
X90531264Y-74568198D02*
X91818198Y-73281264D01*
X91181802Y-75218736D02*
X90531264Y-74568198D01*
X91818198Y-73281264D02*
X92468736Y-73931802D01*
X92468736Y-73931802D02*
X91181802Y-75218736D01*
%TO.C,R81*%
X125530000Y-66070000D02*
X126470000Y-66070000D01*
X125530000Y-67930000D02*
X125530000Y-66070000D01*
X126470000Y-66070000D02*
X126470000Y-67930000D01*
X126470000Y-67930000D02*
X125530000Y-67930000D01*
%TO.C,C86*%
X131660000Y-101665000D02*
X133480000Y-101665000D01*
X131660000Y-102585000D02*
X131660000Y-101665000D01*
X133480000Y-101665000D02*
X133480000Y-102585000D01*
X133480000Y-102585000D02*
X131660000Y-102585000D01*
%TO.C,J5*%
X129975000Y-49045000D02*
X129975000Y-53455000D01*
X129975000Y-53455000D02*
X133525000Y-53455000D01*
X133525000Y-49045000D02*
X129975000Y-49045000D01*
X133525000Y-53455000D02*
X133525000Y-49045000D01*
%TO.C,R113*%
X140820000Y-91030000D02*
X142680000Y-91030000D01*
X140820000Y-91970000D02*
X140820000Y-91030000D01*
X142680000Y-91030000D02*
X142680000Y-91970000D01*
X142680000Y-91970000D02*
X140820000Y-91970000D01*
%TO.C,C85*%
X128520000Y-96245000D02*
X131480000Y-96245000D01*
X128520000Y-97705000D02*
X128520000Y-96245000D01*
X131480000Y-96245000D02*
X131480000Y-97705000D01*
X131480000Y-97705000D02*
X128520000Y-97705000D01*
%TO.C,R11*%
X143780000Y-67320000D02*
X144720000Y-67320000D01*
X143780000Y-69180000D02*
X143780000Y-67320000D01*
X144720000Y-67320000D02*
X144720000Y-69180000D01*
X144720000Y-69180000D02*
X143780000Y-69180000D01*
%TO.C,C116*%
X96031264Y-64818198D02*
X97318198Y-63531264D01*
X96681802Y-65468736D02*
X96031264Y-64818198D01*
X97318198Y-63531264D02*
X97968736Y-64181802D01*
X97968736Y-64181802D02*
X96681802Y-65468736D01*
%TO.C,R106*%
X97942099Y-101317353D02*
X98882099Y-101317353D01*
X97942099Y-103177353D02*
X97942099Y-101317353D01*
X98882099Y-101317353D02*
X98882099Y-103177353D01*
X98882099Y-103177353D02*
X97942099Y-103177353D01*
%TO.C,C102*%
X125937294Y-73030330D02*
X128030330Y-70937294D01*
X126969670Y-74062706D02*
X125937294Y-73030330D01*
X128030330Y-70937294D02*
X129062706Y-71969670D01*
X129062706Y-71969670D02*
X126969670Y-74062706D01*
%TO.C,U31*%
X85100000Y-44650000D02*
X85100000Y-51850000D01*
X85100000Y-51850000D02*
X93900000Y-51850000D01*
X93900000Y-44650000D02*
X85100000Y-44650000D01*
X93900000Y-51850000D02*
X93900000Y-44650000D01*
%TO.C,U29*%
X112637500Y-93450000D02*
X113637500Y-93450000D01*
X112637500Y-96450000D02*
X112637500Y-93450000D01*
X113637500Y-93250000D02*
X115737500Y-93250000D01*
X113637500Y-93450000D02*
X113637500Y-93250000D01*
X113637500Y-96450000D02*
X112637500Y-96450000D01*
X113637500Y-96650000D02*
X113637500Y-96450000D01*
X115737500Y-93250000D02*
X115737500Y-93450000D01*
X115737500Y-93450000D02*
X116737500Y-93450000D01*
X115737500Y-96450000D02*
X115737500Y-96650000D01*
X115737500Y-96650000D02*
X113637500Y-96650000D01*
X116737500Y-93450000D02*
X116737500Y-96450000D01*
X116737500Y-96450000D02*
X115737500Y-96450000D01*
%TO.C,R114*%
X140820000Y-90030000D02*
X142680000Y-90030000D01*
X140820000Y-90970000D02*
X140820000Y-90030000D01*
X142680000Y-90030000D02*
X142680000Y-90970000D01*
X142680000Y-90970000D02*
X140820000Y-90970000D01*
%TO.C,R92*%
X104030000Y-101580000D02*
X104970000Y-101580000D01*
X104030000Y-103440000D02*
X104030000Y-101580000D01*
X104970000Y-101580000D02*
X104970000Y-103440000D01*
X104970000Y-103440000D02*
X104030000Y-103440000D01*
%TO.C,C90*%
X134820000Y-94925000D02*
X136780000Y-94925000D01*
X134820000Y-98325000D02*
X134820000Y-94925000D01*
X136780000Y-94925000D02*
X136780000Y-98325000D01*
X136780000Y-98325000D02*
X134820000Y-98325000D01*
%TO.C,RV1*%
X122750000Y-91250000D02*
X129250000Y-91250000D01*
X129250000Y-86250000D01*
X122750000Y-86250000D01*
X122750000Y-91250000D01*
%TO.C,R10*%
X90185000Y-95030000D02*
X92045000Y-95030000D01*
X90185000Y-95970000D02*
X90185000Y-95030000D01*
X92045000Y-95030000D02*
X92045000Y-95970000D01*
X92045000Y-95970000D02*
X90185000Y-95970000D01*
%TO.C,U27*%
X95850000Y-82150000D02*
X95850000Y-89350000D01*
X95850000Y-89350000D02*
X104650000Y-89350000D01*
X104650000Y-82150000D02*
X95850000Y-82150000D01*
X104650000Y-89350000D02*
X104650000Y-82150000D01*
%TO.C,C108*%
X100781264Y-65068198D02*
X102068198Y-63781264D01*
X101431802Y-65718736D02*
X100781264Y-65068198D01*
X102068198Y-63781264D02*
X102718736Y-64431802D01*
X102718736Y-64431802D02*
X101431802Y-65718736D01*
%TO.C,C104*%
X131031264Y-76318198D02*
X132318198Y-75031264D01*
X131681802Y-76968736D02*
X131031264Y-76318198D01*
X132318198Y-75031264D02*
X132968736Y-75681802D01*
X132968736Y-75681802D02*
X131681802Y-76968736D01*
%TO.C,R95*%
X117060000Y-92730000D02*
X118920000Y-92730000D01*
X117060000Y-93670000D02*
X117060000Y-92730000D01*
X118920000Y-92730000D02*
X118920000Y-93670000D01*
X118920000Y-93670000D02*
X117060000Y-93670000D01*
%TO.C,R112*%
X140820000Y-92030000D02*
X142680000Y-92030000D01*
X140820000Y-92970000D02*
X140820000Y-92030000D01*
X142680000Y-92030000D02*
X142680000Y-92970000D01*
X142680000Y-92970000D02*
X140820000Y-92970000D01*
%TO.C,R13*%
X138649427Y-68314107D02*
X139314107Y-67649427D01*
X139314107Y-67649427D02*
X140629325Y-68964645D01*
X139964645Y-69629325D02*
X138649427Y-68314107D01*
X140629325Y-68964645D02*
X139964645Y-69629325D01*
%TO.C,C105*%
X128031264Y-73318198D02*
X129318198Y-72031264D01*
X128681802Y-73968736D02*
X128031264Y-73318198D01*
X129318198Y-72031264D02*
X129968736Y-72681802D01*
X129968736Y-72681802D02*
X128681802Y-73968736D01*
%TO.C,C110*%
X100281264Y-69318198D02*
X101568198Y-68031264D01*
X100931802Y-69968736D02*
X100281264Y-69318198D01*
X101568198Y-68031264D02*
X102218736Y-68681802D01*
X102218736Y-68681802D02*
X100931802Y-69968736D01*
%TO.C,C107*%
X92281264Y-64818198D02*
X93568198Y-63531264D01*
X92931802Y-65468736D02*
X92281264Y-64818198D01*
X93568198Y-63531264D02*
X94218736Y-64181802D01*
X94218736Y-64181802D02*
X92931802Y-65468736D01*
%TO.C,C2*%
X127031264Y-64681802D02*
X127681802Y-64031264D01*
X127681802Y-64031264D02*
X128968736Y-65318198D01*
X128318198Y-65968736D02*
X127031264Y-64681802D01*
X128968736Y-65318198D02*
X128318198Y-65968736D01*
%TO.C,R59*%
X90185000Y-96280000D02*
X92045000Y-96280000D01*
X90185000Y-97220000D02*
X90185000Y-96280000D01*
X92045000Y-96280000D02*
X92045000Y-97220000D01*
X92045000Y-97220000D02*
X90185000Y-97220000D01*
%TO.C,C92*%
X98770000Y-89520000D02*
X101730000Y-89520000D01*
X98770000Y-90980000D02*
X98770000Y-89520000D01*
X101730000Y-89520000D02*
X101730000Y-90980000D01*
X101730000Y-90980000D02*
X98770000Y-90980000D01*
%TO.C,C95*%
X85031264Y-69581873D02*
X85681802Y-68931335D01*
X85681802Y-68931335D02*
X86968736Y-70218269D01*
X86318198Y-70868807D02*
X85031264Y-69581873D01*
X86968736Y-70218269D02*
X86318198Y-70868807D01*
%TO.C,R4*%
X135530000Y-56070000D02*
X136470000Y-56070000D01*
X135530000Y-57930000D02*
X135530000Y-56070000D01*
X136470000Y-56070000D02*
X136470000Y-57930000D01*
X136470000Y-57930000D02*
X135530000Y-57930000D01*
%TO.C,R108*%
X97780000Y-47560000D02*
X98720000Y-47560000D01*
X97780000Y-49420000D02*
X97780000Y-47560000D01*
X98720000Y-47560000D02*
X98720000Y-49420000D01*
X98720000Y-49420000D02*
X97780000Y-49420000D01*
%TO.C,C4*%
X138281264Y-69431802D02*
X138931802Y-68781264D01*
X138931802Y-68781264D02*
X140218736Y-70068198D01*
X139568198Y-70718736D02*
X138281264Y-69431802D01*
X140218736Y-70068198D02*
X139568198Y-70718736D01*
%TO.C,J4*%
X140555000Y-43795000D02*
X140555000Y-48205000D01*
X140555000Y-48205000D02*
X146645000Y-48205000D01*
X146645000Y-43795000D02*
X140555000Y-43795000D01*
X146645000Y-48205000D02*
X146645000Y-43795000D01*
%TO.C,C11*%
X96031264Y-63318198D02*
X97318198Y-62031264D01*
X96681802Y-63968736D02*
X96031264Y-63318198D01*
X97318198Y-62031264D02*
X97968736Y-62681802D01*
X97968736Y-62681802D02*
X96681802Y-63968736D01*
%TO.C,C83*%
X126320000Y-94925000D02*
X128280000Y-94925000D01*
X126320000Y-98325000D02*
X126320000Y-94925000D01*
X128280000Y-94925000D02*
X128280000Y-98325000D01*
X128280000Y-98325000D02*
X126320000Y-98325000D01*
%TO.C,C1*%
X128281264Y-66431802D02*
X128931802Y-65781264D01*
X128931802Y-65781264D02*
X130218736Y-67068198D01*
X129568198Y-67718736D02*
X128281264Y-66431802D01*
X130218736Y-67068198D02*
X129568198Y-67718736D01*
%TO.C,C119*%
X97790000Y-42840000D02*
X98710000Y-42840000D01*
X97790000Y-44660000D02*
X97790000Y-42840000D01*
X98710000Y-42840000D02*
X98710000Y-44660000D01*
X98710000Y-44660000D02*
X97790000Y-44660000D01*
%TO.C,R91*%
X104030000Y-99580000D02*
X104970000Y-99580000D01*
X104030000Y-101440000D02*
X104030000Y-99580000D01*
X104970000Y-99580000D02*
X104970000Y-101440000D01*
X104970000Y-101440000D02*
X104030000Y-101440000D01*
%TO.C,C97*%
X109270000Y-95270000D02*
X112230000Y-95270000D01*
X109270000Y-96730000D02*
X109270000Y-95270000D01*
X112230000Y-95270000D02*
X112230000Y-96730000D01*
X112230000Y-96730000D02*
X109270000Y-96730000D01*
%TO.C,R90*%
X140820000Y-87030000D02*
X142680000Y-87030000D01*
X140820000Y-87970000D02*
X140820000Y-87030000D01*
X142680000Y-87030000D02*
X142680000Y-87970000D01*
X142680000Y-87970000D02*
X140820000Y-87970000D01*
%TO.C,C9*%
X127781264Y-61818198D02*
X129068198Y-60531264D01*
X128431802Y-62468736D02*
X127781264Y-61818198D01*
X129068198Y-60531264D02*
X129718736Y-61181802D01*
X129718736Y-61181802D02*
X128431802Y-62468736D01*
%TO.C,SW16*%
X139747309Y-55292893D02*
X142292893Y-52747309D01*
X142292893Y-52747309D02*
X146252691Y-56707107D01*
X143707107Y-59252691D02*
X139747309Y-55292893D01*
X146252691Y-56707107D02*
X143707107Y-59252691D01*
%TO.C,R79*%
X89510051Y-65074802D02*
X90174731Y-64410122D01*
X90174731Y-64410122D02*
X91489949Y-65725340D01*
X90825269Y-66390020D02*
X89510051Y-65074802D01*
X91489949Y-65725340D02*
X90825269Y-66390020D01*
%TO.C,R9*%
X90185000Y-94030000D02*
X92045000Y-94030000D01*
X90185000Y-94970000D02*
X90185000Y-94030000D01*
X92045000Y-94030000D02*
X92045000Y-94970000D01*
X92045000Y-94970000D02*
X90185000Y-94970000D01*
%TO.C,R5*%
X134530000Y-56070000D02*
X135470000Y-56070000D01*
X134530000Y-57930000D02*
X134530000Y-56070000D01*
X135470000Y-56070000D02*
X135470000Y-57930000D01*
X135470000Y-57930000D02*
X134530000Y-57930000D01*
%TO.C,J2*%
X129960000Y-43790000D02*
X129960000Y-48610000D01*
X129960000Y-48610000D02*
X134370000Y-48610000D01*
X134370000Y-43790000D02*
X129960000Y-43790000D01*
X134370000Y-48610000D02*
X134370000Y-43790000D01*
%TO.C,R12*%
X143780000Y-69320000D02*
X144720000Y-69320000D01*
X143780000Y-71180000D02*
X143780000Y-69320000D01*
X144720000Y-69320000D02*
X144720000Y-71180000D01*
X144720000Y-71180000D02*
X143780000Y-71180000D01*
%TO.C,R3*%
X136530000Y-56070000D02*
X137470000Y-56070000D01*
X136530000Y-57930000D02*
X136530000Y-56070000D01*
X137470000Y-56070000D02*
X137470000Y-57930000D01*
X137470000Y-57930000D02*
X136530000Y-57930000D01*
%TO.C,C101*%
X96432099Y-99267353D02*
X99392099Y-99267353D01*
X96432099Y-100727353D02*
X96432099Y-99267353D01*
X99392099Y-99267353D02*
X99392099Y-100727353D01*
X99392099Y-100727353D02*
X96432099Y-100727353D01*
%TO.C,R115*%
X140820000Y-89030000D02*
X142680000Y-89030000D01*
X140820000Y-89970000D02*
X140820000Y-89030000D01*
X142680000Y-89030000D02*
X142680000Y-89970000D01*
X142680000Y-89970000D02*
X140820000Y-89970000D01*
%TO.C,R6*%
X133530000Y-56070000D02*
X134470000Y-56070000D01*
X133530000Y-57930000D02*
X133530000Y-56070000D01*
X134470000Y-56070000D02*
X134470000Y-57930000D01*
X134470000Y-57930000D02*
X133530000Y-57930000D01*
%TO.C,C3*%
X134031264Y-75431802D02*
X134681802Y-74781264D01*
X134681802Y-74781264D02*
X135968736Y-76068198D01*
X135318198Y-76718736D02*
X134031264Y-75431802D01*
X135968736Y-76068198D02*
X135318198Y-76718736D01*
%TO.C,C88*%
X137070000Y-94925000D02*
X139030000Y-94925000D01*
X137070000Y-98325000D02*
X137070000Y-94925000D01*
X139030000Y-94925000D02*
X139030000Y-98325000D01*
X139030000Y-98325000D02*
X137070000Y-98325000D01*
%TD*%
M02*
