%TF.GenerationSoftware,KiCad,Pcbnew,9.0.6*%
%TF.CreationDate,2026-03-23T18:07:46+00:00*%
%TF.ProjectId,Recept,52656365-7074-42e6-9b69-6361645f7063,rev?*%
%TF.SameCoordinates,Original*%
%TF.FileFunction,Soldermask,Top*%
%TF.FilePolarity,Negative*%
%FSLAX46Y46*%
G04 Gerber Fmt 4.6, Leading zero omitted, Abs format (unit mm)*
G04 Created by KiCad (PCBNEW 9.0.6) date 2026-03-23 18:07:46*
%MOMM*%
%LPD*%
G01*
G04 APERTURE LIST*
G04 Aperture macros list*
%AMRoundRect*
0 Rectangle with rounded corners*
0 $1 Rounding radius*
0 $2 $3 $4 $5 $6 $7 $8 $9 X,Y pos of 4 corners*
0 Add a 4 corners polygon primitive as box body*
4,1,4,$2,$3,$4,$5,$6,$7,$8,$9,$2,$3,0*
0 Add four circle primitives for the rounded corners*
1,1,$1+$1,$2,$3*
1,1,$1+$1,$4,$5*
1,1,$1+$1,$6,$7*
1,1,$1+$1,$8,$9*
0 Add four rect primitives between the rounded corners*
20,1,$1+$1,$2,$3,$4,$5,0*
20,1,$1+$1,$4,$5,$6,$7,0*
20,1,$1+$1,$6,$7,$8,$9,0*
20,1,$1+$1,$8,$9,$2,$3,0*%
%AMRotRect*
0 Rectangle, with rotation*
0 The origin of the aperture is its center*
0 $1 length*
0 $2 width*
0 $3 Rotation angle, in degrees counterclockwise*
0 Add horizontal line*
21,1,$1,$2,0,0,$3*%
G04 Aperture macros list end*
%ADD10C,0.200000*%
%ADD11RoundRect,0.250000X-0.325000X-0.650000X0.325000X-0.650000X0.325000X0.650000X-0.325000X0.650000X0*%
%ADD12RoundRect,0.135000X0.185000X-0.135000X0.185000X0.135000X-0.185000X0.135000X-0.185000X-0.135000X0*%
%ADD13R,0.800000X0.800000*%
%ADD14RoundRect,0.225000X0.250000X-0.225000X0.250000X0.225000X-0.250000X0.225000X-0.250000X-0.225000X0*%
%ADD15RoundRect,0.225000X-0.250000X0.225000X-0.250000X-0.225000X0.250000X-0.225000X0.250000X0.225000X0*%
%ADD16RoundRect,0.135000X0.135000X0.185000X-0.135000X0.185000X-0.135000X-0.185000X0.135000X-0.185000X0*%
%ADD17RoundRect,0.140000X-0.219203X-0.021213X-0.021213X-0.219203X0.219203X0.021213X0.021213X0.219203X0*%
%ADD18RoundRect,0.250000X-0.900000X1.000000X-0.900000X-1.000000X0.900000X-1.000000X0.900000X1.000000X0*%
%ADD19RoundRect,0.225000X0.225000X0.250000X-0.225000X0.250000X-0.225000X-0.250000X0.225000X-0.250000X0*%
%ADD20RoundRect,0.140000X0.021213X-0.219203X0.219203X-0.021213X-0.021213X0.219203X-0.219203X0.021213X0*%
%ADD21RoundRect,0.140000X-0.021213X0.219203X-0.219203X0.021213X0.021213X-0.219203X0.219203X-0.021213X0*%
%ADD22O,2.050000X0.590000*%
%ADD23C,0.650000*%
%ADD24O,2.100000X1.000000*%
%ADD25O,1.800000X1.000000*%
%ADD26R,1.150000X0.600000*%
%ADD27R,1.150000X0.300000*%
%ADD28RoundRect,0.140000X0.170000X-0.140000X0.170000X0.140000X-0.170000X0.140000X-0.170000X-0.140000X0*%
%ADD29RoundRect,0.225000X-0.225000X-0.250000X0.225000X-0.250000X0.225000X0.250000X-0.225000X0.250000X0*%
%ADD30RoundRect,0.050000X0.238649X0.309359X-0.309359X-0.238649X-0.238649X-0.309359X0.309359X0.238649X0*%
%ADD31RoundRect,0.050000X-0.238649X0.309359X-0.309359X0.238649X0.238649X-0.309359X0.309359X-0.238649X0*%
%ADD32RotRect,3.200000X3.200000X225.000000*%
%ADD33RoundRect,0.250000X-0.475000X0.250000X-0.475000X-0.250000X0.475000X-0.250000X0.475000X0.250000X0*%
%ADD34RoundRect,0.135000X-0.135000X-0.185000X0.135000X-0.185000X0.135000X0.185000X-0.135000X0.185000X0*%
%ADD35C,0.200000*%
%ADD36R,1.700000X1.700000*%
%ADD37C,1.700000*%
%ADD38RoundRect,0.135000X0.226274X0.035355X0.035355X0.226274X-0.226274X-0.035355X-0.035355X-0.226274X0*%
%ADD39RoundRect,0.062500X-0.309359X0.220971X0.220971X-0.309359X0.309359X-0.220971X-0.220971X0.309359X0*%
%ADD40RoundRect,0.062500X-0.309359X-0.220971X-0.220971X-0.309359X0.309359X0.220971X0.220971X0.309359X0*%
%ADD41RotRect,5.600000X5.600000X315.000000*%
%ADD42R,1.250000X0.300000*%
%ADD43R,3.000000X2.000000*%
%ADD44RoundRect,0.140000X-0.170000X0.140000X-0.170000X-0.140000X0.170000X-0.140000X0.170000X0.140000X0*%
%ADD45RotRect,0.900000X1.000000X135.000000*%
%ADD46RotRect,1.700000X0.550000X135.000000*%
%ADD47RoundRect,0.135000X-0.035355X0.226274X-0.226274X0.035355X0.035355X-0.226274X0.226274X-0.035355X0*%
%ADD48RotRect,1.400000X1.200000X45.000000*%
%ADD49RoundRect,0.140000X-0.140000X-0.170000X0.140000X-0.170000X0.140000X0.170000X-0.140000X0.170000X0*%
%ADD50R,1.000000X1.000000*%
%ADD51C,1.000000*%
%ADD52C,1.520000*%
%ADD53RoundRect,0.135000X-0.185000X0.135000X-0.185000X-0.135000X0.185000X-0.135000X0.185000X0.135000X0*%
%ADD54RoundRect,0.225000X-0.017678X0.335876X-0.335876X0.017678X0.017678X-0.335876X0.335876X-0.017678X0*%
%ADD55RoundRect,0.375000X0.625000X0.375000X-0.625000X0.375000X-0.625000X-0.375000X0.625000X-0.375000X0*%
%ADD56RoundRect,0.500000X0.500000X1.400000X-0.500000X1.400000X-0.500000X-1.400000X0.500000X-1.400000X0*%
%ADD57RoundRect,0.150000X0.512500X0.150000X-0.512500X0.150000X-0.512500X-0.150000X0.512500X-0.150000X0*%
%ADD58R,0.250000X0.600000*%
%ADD59R,0.600000X0.250000*%
%ADD60R,0.250000X0.750000*%
%ADD61R,0.250000X1.350000*%
%ADD62R,0.250000X1.800000*%
%ADD63RoundRect,0.250000X0.750000X-0.400000X0.750000X0.400000X-0.750000X0.400000X-0.750000X-0.400000X0*%
%ADD64RoundRect,0.250000X0.750000X-0.750000X0.750000X0.750000X-0.750000X0.750000X-0.750000X-0.750000X0*%
%ADD65C,2.500000*%
%ADD66R,3.000000X6.000000*%
%ADD67R,3.000000X1.600000*%
%ADD68O,0.580000X1.280000*%
%ADD69R,4.300000X3.400000*%
%ADD70RoundRect,0.140000X0.219203X0.021213X0.021213X0.219203X-0.219203X-0.021213X-0.021213X-0.219203X0*%
%ADD71R,1.000000X3.800000*%
%ADD72RoundRect,0.135000X-0.226274X-0.035355X-0.035355X-0.226274X0.226274X0.035355X0.035355X0.226274X0*%
%ADD73R,2.290000X1.520000*%
G04 APERTURE END LIST*
D10*
G36*
X98702876Y-130101676D02*
G01*
X98269692Y-133534501D01*
X97553662Y-133767153D01*
X99386857Y-137707841D01*
X96757348Y-138562221D01*
X94925314Y-134621155D01*
X94183152Y-134862298D01*
X94805542Y-139196401D01*
X92371737Y-139987192D01*
X91126956Y-131318987D01*
X89773294Y-131758819D01*
X89927696Y-130528196D01*
X93560762Y-130528196D01*
X93730243Y-131705826D01*
X96072875Y-130944659D01*
X95564833Y-129877033D01*
X93560762Y-130528196D01*
X89927696Y-130528196D01*
X90205405Y-128314786D01*
X96855832Y-126153931D01*
X98702876Y-130101676D01*
G37*
G36*
X99259966Y-128676412D02*
G01*
X99692077Y-125232379D01*
X105952259Y-123198323D01*
X106405168Y-126354795D01*
X103047434Y-127445789D01*
X103216915Y-128623419D01*
X105637364Y-127836968D01*
X106090273Y-130993440D01*
X103669824Y-131779891D01*
X103838725Y-132957711D01*
X107196459Y-131866717D01*
X107649948Y-135023000D01*
X101858409Y-136904785D01*
X100613629Y-128236580D01*
X99259966Y-128676412D01*
G37*
G36*
X108287752Y-128627620D02*
G01*
X109092222Y-122178087D01*
X114245548Y-120503670D01*
X114698457Y-123660142D01*
X111289039Y-124767929D01*
X110916680Y-127773430D01*
X112080330Y-130279851D01*
X115489748Y-129172064D01*
X115943238Y-132328347D01*
X110789912Y-134002764D01*
X108287752Y-128627620D01*
G37*
G36*
X115789634Y-123305597D02*
G01*
X116221745Y-119861565D01*
X122481927Y-117827508D01*
X122934836Y-120983980D01*
X119577102Y-122074974D01*
X119746583Y-123252605D01*
X122167032Y-122466153D01*
X122619941Y-125622625D01*
X120199492Y-126409077D01*
X120368392Y-127586896D01*
X123726126Y-126495902D01*
X124179616Y-129652186D01*
X118388077Y-131533971D01*
X117143296Y-122865766D01*
X115789634Y-123305597D01*
G37*
G36*
X133155944Y-118907196D02*
G01*
X132722759Y-122340021D01*
X128636219Y-123667818D01*
X129258610Y-128001921D01*
X126824804Y-128792712D01*
X125580024Y-120124507D01*
X124226361Y-120564338D01*
X124380763Y-119333715D01*
X128013829Y-119333715D01*
X128183310Y-120511346D01*
X130525943Y-119750179D01*
X130017900Y-118682553D01*
X128013829Y-119333715D01*
X124380763Y-119333715D01*
X124658472Y-117120306D01*
X131308899Y-114959451D01*
X133155944Y-118907196D01*
G37*
G36*
X133517911Y-117545331D02*
G01*
X133950022Y-114101298D01*
X140509276Y-111970067D01*
X140962185Y-115126540D01*
X138580645Y-115900349D01*
X139825425Y-124568554D01*
X137391619Y-125359345D01*
X136146839Y-116691140D01*
X133517911Y-117545331D01*
G37*
D11*
%TO.C,C98*%
X118525000Y-95000000D03*
X121475000Y-95000000D03*
%TD*%
D12*
%TO.C,R7*%
X133000000Y-57509999D03*
X133000000Y-56490001D03*
%TD*%
D13*
%TO.C,LED18*%
X145500000Y-94500000D03*
X144000000Y-94500000D03*
%TD*%
D14*
%TO.C,C91*%
X105500000Y-86525000D03*
X105500000Y-84975000D03*
%TD*%
D15*
%TO.C,C99*%
X93912099Y-101972353D03*
X93912099Y-103522353D03*
%TD*%
D16*
%TO.C,R93*%
X124010000Y-92000000D03*
X122990000Y-92000000D03*
%TD*%
D17*
%TO.C,C5*%
X136160589Y-73910589D03*
X136839411Y-74589411D03*
%TD*%
D18*
%TO.C,D10*%
X120750000Y-97850000D03*
X120750000Y-102150000D03*
%TD*%
D19*
%TO.C,C94*%
X90275000Y-52750000D03*
X88725000Y-52750000D03*
%TD*%
D20*
%TO.C,C113*%
X92910589Y-76339411D03*
X93589411Y-75660589D03*
%TD*%
D21*
%TO.C,C109*%
X102939411Y-67260589D03*
X102260589Y-67939411D03*
%TD*%
D14*
%TO.C,C93*%
X95000000Y-48775000D03*
X95000000Y-47225000D03*
%TD*%
D22*
%TO.C,U28*%
X114660000Y-86840000D03*
X114660000Y-88120000D03*
X114660000Y-89380000D03*
X114660000Y-90650000D03*
X119800000Y-90650000D03*
X119800000Y-89380000D03*
X119800000Y-88120000D03*
X119800000Y-86840000D03*
%TD*%
D23*
%TO.C,USB2*%
X86790000Y-92110000D03*
X86790000Y-97890000D03*
D24*
X87290000Y-90680000D03*
X87290000Y-99320000D03*
D25*
X83140000Y-90680000D03*
X83140000Y-99320000D03*
D26*
X87860000Y-91800000D03*
X87860000Y-92600000D03*
D27*
X87860000Y-93750000D03*
X87860000Y-94750000D03*
X87860000Y-95250000D03*
X87860000Y-96250000D03*
D26*
X87860000Y-98200000D03*
X87860000Y-97400000D03*
D27*
X87860000Y-96750000D03*
X87860000Y-95750000D03*
X87860000Y-94250000D03*
X87860000Y-93250000D03*
%TD*%
D28*
%TO.C,C118*%
X97000000Y-44230000D03*
X97000000Y-43270000D03*
%TD*%
D12*
%TO.C,R1*%
X139000000Y-57509999D03*
X139000000Y-56490001D03*
%TD*%
D29*
%TO.C,C87*%
X132325000Y-96975000D03*
X133875000Y-96975000D03*
%TD*%
D12*
%TO.C,R94*%
X122000000Y-89260000D03*
X122000000Y-88240000D03*
%TD*%
D21*
%TO.C,C6*%
X134339411Y-76660589D03*
X133660589Y-77339411D03*
%TD*%
D30*
%TO.C,U1*%
X137637786Y-69407798D03*
X137354943Y-69124955D03*
X137072101Y-68842113D03*
X136789258Y-68559270D03*
X136506415Y-68276427D03*
X136223573Y-67993585D03*
X135940730Y-67710742D03*
X135657887Y-67427899D03*
X135375044Y-67145056D03*
X135092202Y-66862214D03*
X134809359Y-66579371D03*
X134526516Y-66296528D03*
X134243674Y-66013686D03*
X133960831Y-65730843D03*
D31*
X132776427Y-65730843D03*
X132493584Y-66013686D03*
X132210742Y-66296528D03*
X131927899Y-66579371D03*
X131645056Y-66862214D03*
X131362214Y-67145056D03*
X131079371Y-67427899D03*
X130796528Y-67710742D03*
X130513685Y-67993585D03*
X130230843Y-68276427D03*
X129948000Y-68559270D03*
X129665157Y-68842113D03*
X129382315Y-69124955D03*
X129099472Y-69407798D03*
D30*
X129099472Y-70592202D03*
X129382315Y-70875045D03*
X129665157Y-71157887D03*
X129948000Y-71440730D03*
X130230843Y-71723573D03*
X130513685Y-72006415D03*
X130796528Y-72289258D03*
X131079371Y-72572101D03*
X131362214Y-72854944D03*
X131645056Y-73137786D03*
X131927899Y-73420629D03*
X132210742Y-73703472D03*
X132493584Y-73986314D03*
X132776427Y-74269157D03*
D31*
X133960831Y-74269157D03*
X134243674Y-73986314D03*
X134526516Y-73703472D03*
X134809359Y-73420629D03*
X135092202Y-73137786D03*
X135375044Y-72854944D03*
X135657887Y-72572101D03*
X135940730Y-72289258D03*
X136223573Y-72006415D03*
X136506415Y-71723573D03*
X136789258Y-71440730D03*
X137072101Y-71157887D03*
X137354943Y-70875045D03*
X137637786Y-70592202D03*
D32*
X133368629Y-70000000D03*
%TD*%
D33*
%TO.C,C89*%
X140300000Y-95675000D03*
X140300000Y-97575000D03*
%TD*%
D34*
%TO.C,R70*%
X129790000Y-102125000D03*
X130810000Y-102125000D03*
%TD*%
D12*
%TO.C,R8*%
X132000000Y-57509999D03*
X132000000Y-56490001D03*
%TD*%
D17*
%TO.C,C114*%
X90410589Y-75410589D03*
X91089411Y-76089411D03*
%TD*%
D16*
%TO.C,R105*%
X120490000Y-93200000D03*
X119470000Y-93200000D03*
%TD*%
D20*
%TO.C,C111*%
X99910589Y-66589411D03*
X100589411Y-65910589D03*
%TD*%
D17*
%TO.C,C8*%
X135410589Y-74660589D03*
X136089411Y-75339411D03*
%TD*%
D35*
%TO.C,U25*%
X95812099Y-102447353D03*
X95812099Y-102047353D03*
X96212099Y-102447353D03*
X96212099Y-102047353D03*
X96612099Y-102447353D03*
X96612099Y-102047353D03*
X97012099Y-102447353D03*
X97012099Y-102047353D03*
%TD*%
D34*
%TO.C,R57*%
X90605000Y-93250000D03*
X91625000Y-93250000D03*
%TD*%
D13*
%TO.C,LED20*%
X145500000Y-90500000D03*
X144000000Y-90500000D03*
%TD*%
D36*
%TO.C,J1*%
X102000000Y-100225000D03*
D37*
X102000000Y-102765000D03*
%TD*%
D38*
%TO.C,R14*%
X140250000Y-67750000D03*
X139528752Y-67028752D03*
%TD*%
D34*
%TO.C,R71*%
X131840000Y-103125000D03*
X132860000Y-103125000D03*
%TD*%
D38*
%TO.C,R15*%
X140500000Y-66500000D03*
X139778752Y-65778752D03*
%TD*%
D12*
%TO.C,R2*%
X138000000Y-57509999D03*
X138000000Y-56490001D03*
%TD*%
D13*
%TO.C,LED10*%
X145500000Y-98500000D03*
X144000000Y-98500000D03*
%TD*%
D39*
%TO.C,U22*%
X95013864Y-66374777D03*
X94660311Y-66728330D03*
X94306757Y-67081884D03*
X93953204Y-67435437D03*
X93599651Y-67788990D03*
X93246097Y-68142544D03*
X92892544Y-68496097D03*
X92538990Y-68849651D03*
X92185437Y-69203204D03*
X91831884Y-69556757D03*
X91478330Y-69910311D03*
X91124777Y-70263864D03*
D40*
X91124777Y-71236136D03*
X91478330Y-71589689D03*
X91831884Y-71943243D03*
X92185437Y-72296796D03*
X92538990Y-72650349D03*
X92892544Y-73003903D03*
X93246097Y-73357456D03*
X93599651Y-73711010D03*
X93953204Y-74064563D03*
X94306757Y-74418116D03*
X94660311Y-74771670D03*
X95013864Y-75125223D03*
D39*
X95986136Y-75125223D03*
X96339689Y-74771670D03*
X96693243Y-74418116D03*
X97046796Y-74064563D03*
X97400349Y-73711010D03*
X97753903Y-73357456D03*
X98107456Y-73003903D03*
X98461010Y-72650349D03*
X98814563Y-72296796D03*
X99168116Y-71943243D03*
X99521670Y-71589689D03*
X99875223Y-71236136D03*
D40*
X99875223Y-70263864D03*
X99521670Y-69910311D03*
X99168116Y-69556757D03*
X98814563Y-69203204D03*
X98461010Y-68849651D03*
X98107456Y-68496097D03*
X97753903Y-68142544D03*
X97400349Y-67788990D03*
X97046796Y-67435437D03*
X96693243Y-67081884D03*
X96339689Y-66728330D03*
X95986136Y-66374777D03*
D41*
X95500000Y-70750000D03*
%TD*%
D21*
%TO.C,C7*%
X133589411Y-75910589D03*
X132910589Y-76589411D03*
%TD*%
D42*
%TO.C,FPC1*%
X107690000Y-61750000D03*
X107690000Y-62250000D03*
X107690000Y-62750000D03*
X107690000Y-63250000D03*
X107690000Y-63750000D03*
X107690000Y-64250000D03*
X107690000Y-64750000D03*
X107690000Y-65250000D03*
X107690000Y-65750000D03*
X107690000Y-66250000D03*
X107690000Y-66750000D03*
X107690000Y-67250000D03*
X107690000Y-67750000D03*
X107690000Y-68250000D03*
X107690000Y-68750000D03*
X107690000Y-69250000D03*
X107690000Y-69750000D03*
X107690000Y-70250000D03*
X107690000Y-70750000D03*
X107690000Y-71250000D03*
X107690000Y-71750000D03*
X107690000Y-72250000D03*
X107690000Y-72750000D03*
X107690000Y-73250000D03*
X107690000Y-73750000D03*
X107690000Y-74250000D03*
X107690000Y-74750000D03*
X107690000Y-75250000D03*
X107690000Y-75750000D03*
X107690000Y-76250000D03*
X107690000Y-76750000D03*
X107690000Y-77250000D03*
X107690000Y-77750000D03*
X107690000Y-78250000D03*
X107690000Y-78750000D03*
X107690000Y-79250000D03*
X107690000Y-79750000D03*
X107690000Y-80250000D03*
X107690000Y-80750000D03*
X107690000Y-81250000D03*
D43*
X110010000Y-82790000D03*
X110010000Y-60210000D03*
%TD*%
D44*
%TO.C,C81*%
X89365000Y-97270000D03*
X89365000Y-98230000D03*
%TD*%
D21*
%TO.C,C106*%
X86589411Y-65560660D03*
X85910589Y-66239482D03*
%TD*%
D20*
%TO.C,C112*%
X93660589Y-77089411D03*
X94339411Y-76410589D03*
%TD*%
D21*
%TO.C,C96*%
X145839411Y-58160589D03*
X145160589Y-58839411D03*
%TD*%
D28*
%TO.C,C82*%
X89365000Y-92730000D03*
X89365000Y-91770000D03*
%TD*%
D21*
%TO.C,C12*%
X98089411Y-64910589D03*
X97410589Y-65589411D03*
%TD*%
D12*
%TO.C,R107*%
X98250000Y-47000000D03*
X98250000Y-45980000D03*
%TD*%
D21*
%TO.C,C103*%
X137589411Y-75410589D03*
X136910589Y-76089411D03*
%TD*%
D13*
%TO.C,LED19*%
X145500000Y-92500000D03*
X144000000Y-92500000D03*
%TD*%
D19*
%TO.C,C100*%
X95457099Y-99997353D03*
X93907099Y-99997353D03*
%TD*%
D45*
%TO.C,SW1*%
X143383883Y-63515254D03*
X140484746Y-60616117D03*
X144515254Y-62383883D03*
X141616117Y-59484746D03*
D46*
X141492373Y-62507627D03*
%TD*%
D47*
%TO.C,R16*%
X134610624Y-63389376D03*
X133889376Y-64110624D03*
%TD*%
D34*
%TO.C,R111*%
X141240000Y-93500000D03*
X142260000Y-93500000D03*
%TD*%
D48*
%TO.C,X3*%
X88094437Y-68900071D03*
X89650071Y-67344437D03*
X88405563Y-66099929D03*
X86849929Y-67655563D03*
%TD*%
D34*
%TO.C,R116*%
X141240000Y-88500000D03*
X142260000Y-88500000D03*
%TD*%
D21*
%TO.C,C117*%
X95839411Y-64160589D03*
X95160589Y-64839411D03*
%TD*%
D28*
%TO.C,C10*%
X144500000Y-81230000D03*
X144500000Y-80270000D03*
%TD*%
D33*
%TO.C,C84*%
X125050000Y-95675000D03*
X125050000Y-97575000D03*
%TD*%
D21*
%TO.C,C115*%
X91839411Y-73910589D03*
X91160589Y-74589411D03*
%TD*%
D12*
%TO.C,R81*%
X126000000Y-67509999D03*
X126000000Y-66490001D03*
%TD*%
D49*
%TO.C,C86*%
X132090000Y-102125000D03*
X133050000Y-102125000D03*
%TD*%
D13*
%TO.C,LED8*%
X108000000Y-30750000D03*
X108000000Y-32250000D03*
%TD*%
%TO.C,LED7*%
X110000000Y-30750000D03*
X110000000Y-32250000D03*
%TD*%
D50*
%TO.C,J5*%
X131115000Y-51885000D03*
D51*
X131115000Y-50615000D03*
X132385000Y-51885000D03*
X132385000Y-50615000D03*
%TD*%
D52*
%TO.C,SW18*%
X85882500Y-81450000D03*
X85882500Y-84000000D03*
X85882500Y-86550000D03*
%TD*%
D34*
%TO.C,R113*%
X141240000Y-91500000D03*
X142260000Y-91500000D03*
%TD*%
D19*
%TO.C,C85*%
X130775000Y-96975000D03*
X129225000Y-96975000D03*
%TD*%
D53*
%TO.C,R11*%
X144250000Y-67740001D03*
X144250000Y-68759999D03*
%TD*%
D21*
%TO.C,C116*%
X97339411Y-64160589D03*
X96660589Y-64839411D03*
%TD*%
D13*
%TO.C,LED2*%
X120000000Y-30750000D03*
X120000000Y-32250000D03*
%TD*%
D12*
%TO.C,R106*%
X98412099Y-102757353D03*
X98412099Y-101737353D03*
%TD*%
D54*
%TO.C,C102*%
X128048008Y-71951992D03*
X126951992Y-73048008D03*
%TD*%
D55*
%TO.C,U31*%
X92650000Y-50550000D03*
X92650000Y-48250000D03*
D56*
X86350000Y-48250000D03*
D55*
X92650000Y-45950000D03*
%TD*%
D57*
%TO.C,U29*%
X115825000Y-95900000D03*
X115825000Y-94950000D03*
X115825000Y-94000000D03*
X113550000Y-94000000D03*
X113550000Y-94950000D03*
X113550000Y-95900000D03*
%TD*%
D34*
%TO.C,R114*%
X141240000Y-90500000D03*
X142260000Y-90500000D03*
%TD*%
D53*
%TO.C,R92*%
X104500000Y-102000000D03*
X104500000Y-103020000D03*
%TD*%
D58*
%TO.C,U24*%
X130800000Y-100625000D03*
X131300000Y-100625000D03*
X131800000Y-100625000D03*
X132300000Y-100625000D03*
D59*
X132950000Y-100205000D03*
X132950000Y-99705000D03*
D60*
X132780000Y-98955000D03*
D59*
X132950000Y-98705000D03*
X132950000Y-99205000D03*
D61*
X132050000Y-98705000D03*
D62*
X131550000Y-98935000D03*
D61*
X131050000Y-98705000D03*
D59*
X130150000Y-98705000D03*
X130150000Y-99205000D03*
D60*
X130320000Y-98955000D03*
D59*
X130150000Y-99705000D03*
X130150000Y-100205000D03*
%TD*%
D33*
%TO.C,C90*%
X135800000Y-95675000D03*
X135800000Y-97575000D03*
%TD*%
D48*
%TO.C,U2*%
X130573223Y-64628858D03*
X132128858Y-63073223D03*
X130926777Y-61871142D03*
X129371142Y-63426777D03*
%TD*%
D63*
%TO.C,RV1*%
X124000000Y-87600000D03*
D64*
X128000000Y-88750000D03*
D63*
X124000000Y-89900000D03*
%TD*%
D34*
%TO.C,R10*%
X90605000Y-95500000D03*
X91625000Y-95500000D03*
%TD*%
D13*
%TO.C,LED5*%
X114000000Y-30750000D03*
X114000000Y-32250000D03*
%TD*%
D65*
%TO.C,U30*%
X133980000Y-33020000D03*
X139020000Y-32980000D03*
X138980000Y-38020000D03*
X133980000Y-38020000D03*
X136480000Y-35520000D03*
%TD*%
D55*
%TO.C,U27*%
X103400000Y-88050000D03*
X103400000Y-85750000D03*
D56*
X97100000Y-85750000D03*
D55*
X103400000Y-83450000D03*
%TD*%
D20*
%TO.C,C108*%
X101410589Y-65089411D03*
X102089411Y-64410589D03*
%TD*%
D21*
%TO.C,C104*%
X132339411Y-75660589D03*
X131660589Y-76339411D03*
%TD*%
D16*
%TO.C,R95*%
X118500000Y-93200000D03*
X117480000Y-93200000D03*
%TD*%
D34*
%TO.C,R112*%
X141240000Y-92500000D03*
X142260000Y-92500000D03*
%TD*%
D38*
%TO.C,R13*%
X140000000Y-69000000D03*
X139278752Y-68278752D03*
%TD*%
D21*
%TO.C,C105*%
X129339411Y-72660589D03*
X128660589Y-73339411D03*
%TD*%
%TO.C,C110*%
X101589411Y-68660589D03*
X100910589Y-69339411D03*
%TD*%
D66*
%TO.C,L4*%
X112550000Y-100250000D03*
X116450000Y-100250000D03*
%TD*%
D21*
%TO.C,C107*%
X93589411Y-64160589D03*
X92910589Y-64839411D03*
%TD*%
D17*
%TO.C,C2*%
X127660589Y-64660589D03*
X128339411Y-65339411D03*
%TD*%
D34*
%TO.C,R59*%
X90605000Y-96750000D03*
X91625000Y-96750000D03*
%TD*%
D19*
%TO.C,C92*%
X101025000Y-90250000D03*
X99475000Y-90250000D03*
%TD*%
D67*
%TO.C,CM1*%
X129500000Y-39930000D03*
X129500000Y-37390000D03*
X129500000Y-34840000D03*
X101500000Y-34840000D03*
X101500000Y-37380000D03*
X101500000Y-39920000D03*
X101500000Y-42460000D03*
X101500000Y-45000000D03*
X101500000Y-47540000D03*
X101500000Y-50080000D03*
X101500000Y-52620000D03*
X101500000Y-55160000D03*
%TD*%
D17*
%TO.C,C95*%
X85660589Y-69560660D03*
X86339411Y-70239482D03*
%TD*%
D12*
%TO.C,R4*%
X136000000Y-57509999D03*
X136000000Y-56490001D03*
%TD*%
%TO.C,R108*%
X98250000Y-49000000D03*
X98250000Y-47980000D03*
%TD*%
D13*
%TO.C,LED3*%
X118000000Y-30750000D03*
X118000000Y-32250000D03*
%TD*%
D17*
%TO.C,C4*%
X138910589Y-69410589D03*
X139589411Y-70089411D03*
%TD*%
D50*
%TO.C,J4*%
X141695000Y-46635000D03*
D51*
X141695000Y-45365000D03*
X142965000Y-46635000D03*
X142965000Y-45365000D03*
X144235000Y-46635000D03*
X144235000Y-45365000D03*
X145505000Y-46635000D03*
X145505000Y-45365000D03*
%TD*%
D68*
%TO.C,U4*%
X144309999Y-72500001D03*
X143029999Y-72500000D03*
X141769999Y-72500000D03*
X140500000Y-72500000D03*
X140500000Y-78520000D03*
X141769999Y-78520000D03*
X143029999Y-78520000D03*
X144309999Y-78519999D03*
D69*
X142399999Y-75510000D03*
%TD*%
D21*
%TO.C,C11*%
X97339411Y-62660589D03*
X96660589Y-63339411D03*
%TD*%
D33*
%TO.C,C83*%
X127300000Y-95675000D03*
X127300000Y-97575000D03*
%TD*%
D70*
%TO.C,C1*%
X129589411Y-67089411D03*
X128910589Y-66410589D03*
%TD*%
D28*
%TO.C,C119*%
X98250000Y-44230000D03*
X98250000Y-43270000D03*
%TD*%
D53*
%TO.C,R91*%
X104500000Y-100000000D03*
X104500000Y-101020000D03*
%TD*%
D29*
%TO.C,C97*%
X109975000Y-96000000D03*
X111525000Y-96000000D03*
%TD*%
D34*
%TO.C,R90*%
X141240000Y-87500000D03*
X142260000Y-87500000D03*
%TD*%
D21*
%TO.C,C9*%
X129089411Y-61160589D03*
X128410589Y-61839411D03*
%TD*%
D71*
%TO.C,L3*%
X130350000Y-93375000D03*
X132750000Y-93375000D03*
%TD*%
D45*
%TO.C,SW16*%
X143883883Y-58015254D03*
X140984746Y-55116117D03*
X145015254Y-56883883D03*
X142116117Y-53984746D03*
D46*
X141992373Y-57007627D03*
%TD*%
D72*
%TO.C,R79*%
X90139376Y-65039447D03*
X90860624Y-65760695D03*
%TD*%
D34*
%TO.C,R9*%
X90605000Y-94500000D03*
X91625000Y-94500000D03*
%TD*%
D12*
%TO.C,R5*%
X135000000Y-57509999D03*
X135000000Y-56490001D03*
%TD*%
D50*
%TO.C,J2*%
X131530000Y-44930000D03*
D51*
X132800000Y-44930000D03*
X131530000Y-46200000D03*
X132800000Y-46200000D03*
X131530000Y-47470000D03*
X132800000Y-47470000D03*
%TD*%
D12*
%TO.C,R12*%
X144250000Y-70759999D03*
X144250000Y-69740001D03*
%TD*%
D73*
%TO.C,SW15*%
X88000000Y-32460000D03*
X88000000Y-35000000D03*
X88000000Y-37540000D03*
X97000000Y-37540000D03*
X97000000Y-35000000D03*
X97000000Y-32460000D03*
%TD*%
D12*
%TO.C,R3*%
X137000000Y-57509999D03*
X137000000Y-56490001D03*
%TD*%
D13*
%TO.C,LED1*%
X122000000Y-30750000D03*
X122000000Y-32250000D03*
%TD*%
%TO.C,LED23*%
X145500000Y-84500000D03*
X144000000Y-84500000D03*
%TD*%
%TO.C,LED6*%
X112000000Y-30750000D03*
X112000000Y-32250000D03*
%TD*%
D29*
%TO.C,C101*%
X97137099Y-99997353D03*
X98687099Y-99997353D03*
%TD*%
D13*
%TO.C,LED17*%
X145500000Y-96500000D03*
X144000000Y-96500000D03*
%TD*%
D34*
%TO.C,R115*%
X141240000Y-89500000D03*
X142260000Y-89500000D03*
%TD*%
D13*
%TO.C,LED21*%
X145500000Y-88500000D03*
X144000000Y-88500000D03*
%TD*%
%TO.C,LED22*%
X145500000Y-86500000D03*
X144000000Y-86500000D03*
%TD*%
D12*
%TO.C,R6*%
X134000000Y-57509999D03*
X134000000Y-56490001D03*
%TD*%
D13*
%TO.C,LED4*%
X116000000Y-30750000D03*
X116000000Y-32250000D03*
%TD*%
D17*
%TO.C,C3*%
X134660589Y-75410589D03*
X135339411Y-76089411D03*
%TD*%
D33*
%TO.C,C88*%
X138050000Y-95675000D03*
X138050000Y-97575000D03*
%TD*%
G36*
X96956346Y-39914352D02*
G01*
X96970698Y-39949000D01*
X96965769Y-39970418D01*
X96964797Y-39972418D01*
X96936744Y-39997308D01*
X96920726Y-40000000D01*
X92000000Y-40000000D01*
X92000000Y-41500000D01*
X96143920Y-41500000D01*
X96178568Y-41514352D01*
X96192920Y-41549000D01*
X96187989Y-41570422D01*
X95263406Y-43472422D01*
X95235351Y-43497309D01*
X95219337Y-43500000D01*
X84000000Y-43500000D01*
X84000000Y-146500000D01*
X147000000Y-146500000D01*
X147000000Y-43500000D01*
X133049000Y-43500000D01*
X133014352Y-43485648D01*
X133000000Y-43451000D01*
X133000000Y-40549000D01*
X133014352Y-40514352D01*
X133049000Y-40500000D01*
X133951000Y-40500000D01*
X133985648Y-40514352D01*
X134000000Y-40549000D01*
X134000000Y-41500000D01*
X139000000Y-41500000D01*
X139000000Y-40549000D01*
X139014352Y-40514352D01*
X139049000Y-40500000D01*
X146999670Y-40500000D01*
X147000357Y-40500005D01*
X147165934Y-40502326D01*
X147170733Y-40502629D01*
X147500184Y-40539749D01*
X147505602Y-40540670D01*
X147828477Y-40614364D01*
X147833757Y-40615885D01*
X148146361Y-40725270D01*
X148151437Y-40727373D01*
X148449817Y-40871065D01*
X148454627Y-40873723D01*
X148735049Y-41049924D01*
X148739530Y-41053103D01*
X148998467Y-41259598D01*
X149002564Y-41263260D01*
X149236739Y-41497435D01*
X149240401Y-41501532D01*
X149446896Y-41760469D01*
X149450075Y-41764950D01*
X149626276Y-42045372D01*
X149628934Y-42050182D01*
X149772626Y-42348562D01*
X149774729Y-42353638D01*
X149884114Y-42666242D01*
X149885635Y-42671522D01*
X149959329Y-42994397D01*
X149960250Y-42999815D01*
X149997370Y-43329266D01*
X149997673Y-43334065D01*
X149999995Y-43499643D01*
X150000000Y-43500330D01*
X150000000Y-59451000D01*
X149985648Y-59485648D01*
X149951000Y-59500000D01*
X149000000Y-59500000D01*
X149000000Y-64500000D01*
X149951000Y-64500000D01*
X149985648Y-64514352D01*
X150000000Y-64549000D01*
X150000000Y-92451000D01*
X149985648Y-92485648D01*
X149951000Y-92500000D01*
X149000000Y-92500000D01*
X149000000Y-97500000D01*
X149951000Y-97500000D01*
X149985648Y-97514352D01*
X150000000Y-97549000D01*
X150000000Y-125451000D01*
X149985648Y-125485648D01*
X149951000Y-125500000D01*
X149000000Y-125500000D01*
X149000000Y-130500000D01*
X149951000Y-130500000D01*
X149985648Y-130514352D01*
X150000000Y-130549000D01*
X150000000Y-146499669D01*
X149999995Y-146500356D01*
X149997673Y-146665934D01*
X149997370Y-146670733D01*
X149960250Y-147000184D01*
X149959329Y-147005602D01*
X149885635Y-147328477D01*
X149884114Y-147333757D01*
X149774729Y-147646361D01*
X149772626Y-147651437D01*
X149628934Y-147949817D01*
X149626276Y-147954627D01*
X149450075Y-148235049D01*
X149446896Y-148239530D01*
X149240401Y-148498467D01*
X149236739Y-148502564D01*
X149002564Y-148736739D01*
X148998467Y-148740401D01*
X148739530Y-148946896D01*
X148735049Y-148950075D01*
X148454627Y-149126276D01*
X148449817Y-149128934D01*
X148151437Y-149272626D01*
X148146361Y-149274729D01*
X147833757Y-149384114D01*
X147828477Y-149385635D01*
X147505602Y-149459329D01*
X147500184Y-149460250D01*
X147170733Y-149497370D01*
X147165934Y-149497673D01*
X147000357Y-149499995D01*
X146999670Y-149500000D01*
X139049000Y-149500000D01*
X139014352Y-149485648D01*
X139000000Y-149451000D01*
X139000000Y-148500000D01*
X134000000Y-148500000D01*
X134000000Y-149451000D01*
X133985648Y-149485648D01*
X133951000Y-149500000D01*
X97049000Y-149500000D01*
X97014352Y-149485648D01*
X97000000Y-149451000D01*
X97000000Y-148500000D01*
X92000000Y-148500000D01*
X92000000Y-149451000D01*
X91985648Y-149485648D01*
X91951000Y-149500000D01*
X84000330Y-149500000D01*
X83999643Y-149499995D01*
X83834065Y-149497673D01*
X83829266Y-149497370D01*
X83499815Y-149460250D01*
X83494397Y-149459329D01*
X83171522Y-149385635D01*
X83166242Y-149384114D01*
X82853638Y-149274729D01*
X82848562Y-149272626D01*
X82550182Y-149128934D01*
X82545372Y-149126276D01*
X82264950Y-148950075D01*
X82260469Y-148946896D01*
X82001532Y-148740401D01*
X81997435Y-148736739D01*
X81763260Y-148502564D01*
X81759598Y-148498467D01*
X81553103Y-148239530D01*
X81549924Y-148235049D01*
X81373723Y-147954627D01*
X81371065Y-147949817D01*
X81227373Y-147651437D01*
X81225270Y-147646361D01*
X81115885Y-147333757D01*
X81114364Y-147328477D01*
X81040670Y-147005602D01*
X81039749Y-147000184D01*
X81002629Y-146670733D01*
X81002326Y-146665934D01*
X81000005Y-146500356D01*
X81000000Y-146499669D01*
X81000000Y-130549000D01*
X81014352Y-130514352D01*
X81049000Y-130500000D01*
X82000000Y-130500000D01*
X82000000Y-125500000D01*
X81049000Y-125500000D01*
X81014352Y-125485648D01*
X81000000Y-125451000D01*
X81000000Y-64549000D01*
X81014352Y-64514352D01*
X81049000Y-64500000D01*
X82000000Y-64500000D01*
X82000000Y-59500000D01*
X81049000Y-59500000D01*
X81014352Y-59485648D01*
X81000000Y-59451000D01*
X81000000Y-39949000D01*
X81014352Y-39914352D01*
X81049000Y-39900000D01*
X96921698Y-39900000D01*
X96956346Y-39914352D01*
G37*
M02*
