%TF.GenerationSoftware,KiCad,Pcbnew,9.0.6*%
%TF.CreationDate,2026-03-23T18:07:46+00:00*%
%TF.ProjectId,Recept,52656365-7074-42e6-9b69-6361645f7063,rev?*%
%TF.SameCoordinates,Original*%
%TF.FileFunction,Other,Comment*%
%FSLAX46Y46*%
G04 Gerber Fmt 4.6, Leading zero omitted, Abs format (unit mm)*
G04 Created by KiCad (PCBNEW 9.0.6) date 2026-03-23 18:07:46*
%MOMM*%
%LPD*%
G01*
G04 APERTURE LIST*
%ADD10C,0.300000*%
%ADD11C,0.250000*%
%ADD12C,0.200000*%
%ADD13C,0.400000*%
%ADD14C,0.500000*%
G04 APERTURE END LIST*
D10*
%TO.C,U28*%
X113980000Y-86840000D02*
G75*
G02*
X113680000Y-86840000I-150000J0D01*
G01*
X113680000Y-86840000D02*
G75*
G02*
X113980000Y-86840000I150000J0D01*
G01*
D11*
%TO.C,USB2*%
X86910000Y-92110000D02*
G75*
G02*
X86670000Y-92110000I-120000J0D01*
G01*
X86670000Y-92110000D02*
G75*
G02*
X86910000Y-92110000I120000J0D01*
G01*
X86910000Y-97890000D02*
G75*
G02*
X86670000Y-97890000I-120000J0D01*
G01*
X86670000Y-97890000D02*
G75*
G02*
X86910000Y-97890000I120000J0D01*
G01*
D12*
%TO.C,U25*%
X95912099Y-102547353D02*
G75*
G02*
X95712099Y-102547353I-100000J0D01*
G01*
X95712099Y-102547353D02*
G75*
G02*
X95912099Y-102547353I100000J0D01*
G01*
D13*
%TO.C,FPC1*%
X107870000Y-60970000D02*
G75*
G02*
X107470000Y-60970000I-200000J0D01*
G01*
X107470000Y-60970000D02*
G75*
G02*
X107870000Y-60970000I200000J0D01*
G01*
D14*
%TO.C,X3*%
X88139376Y-69119275D02*
G75*
G02*
X87639376Y-69119275I-250000J0D01*
G01*
X87639376Y-69119275D02*
G75*
G02*
X88139376Y-69119275I250000J0D01*
G01*
D12*
%TO.C,U24*%
X130900000Y-101035000D02*
G75*
G02*
X130700000Y-101035000I-100000J0D01*
G01*
X130700000Y-101035000D02*
G75*
G02*
X130900000Y-101035000I100000J0D01*
G01*
D11*
%TO.C,U2*%
X130611299Y-64777351D02*
G75*
G02*
X130351299Y-64777351I-130000J0D01*
G01*
X130351299Y-64777351D02*
G75*
G02*
X130611299Y-64777351I130000J0D01*
G01*
D14*
%TO.C,CM1*%
X130860000Y-40810000D02*
G75*
G02*
X130360000Y-40810000I-250000J0D01*
G01*
X130360000Y-40810000D02*
G75*
G02*
X130860000Y-40810000I250000J0D01*
G01*
D10*
%TO.C,U4*%
X144459999Y-72110000D02*
G75*
G02*
X144159999Y-72110000I-150000J0D01*
G01*
X144159999Y-72110000D02*
G75*
G02*
X144459999Y-72110000I150000J0D01*
G01*
%TD*%
M02*
