%TF.GenerationSoftware,KiCad,Pcbnew,9.0.6*%
%TF.CreationDate,2026-03-23T18:07:46+00:00*%
%TF.ProjectId,Recept,52656365-7074-42e6-9b69-6361645f7063,rev?*%
%TF.SameCoordinates,Original*%
%TF.FileFunction,Paste,Top*%
%TF.FilePolarity,Positive*%
%FSLAX46Y46*%
G04 Gerber Fmt 4.6, Leading zero omitted, Abs format (unit mm)*
G04 Created by KiCad (PCBNEW 9.0.6) date 2026-03-23 18:07:46*
%MOMM*%
%LPD*%
G01*
G04 APERTURE LIST*
G04 Aperture macros list*
%AMRoundRect*
0 Rectangle with rounded corners*
0 $1 Rounding radius*
0 $2 $3 $4 $5 $6 $7 $8 $9 X,Y pos of 4 corners*
0 Add a 4 corners polygon primitive as box body*
4,1,4,$2,$3,$4,$5,$6,$7,$8,$9,$2,$3,0*
0 Add four circle primitives for the rounded corners*
1,1,$1+$1,$2,$3*
1,1,$1+$1,$4,$5*
1,1,$1+$1,$6,$7*
1,1,$1+$1,$8,$9*
0 Add four rect primitives between the rounded corners*
20,1,$1+$1,$2,$3,$4,$5,0*
20,1,$1+$1,$4,$5,$6,$7,0*
20,1,$1+$1,$6,$7,$8,$9,0*
20,1,$1+$1,$8,$9,$2,$3,0*%
%AMRotRect*
0 Rectangle, with rotation*
0 The origin of the aperture is its center*
0 $1 length*
0 $2 width*
0 $3 Rotation angle, in degrees counterclockwise*
0 Add horizontal line*
21,1,$1,$2,0,0,$3*%
G04 Aperture macros list end*
%ADD10RoundRect,0.250000X-0.325000X-0.650000X0.325000X-0.650000X0.325000X0.650000X-0.325000X0.650000X0*%
%ADD11RoundRect,0.135000X0.185000X-0.135000X0.185000X0.135000X-0.185000X0.135000X-0.185000X-0.135000X0*%
%ADD12R,0.800000X0.800000*%
%ADD13RoundRect,0.225000X0.250000X-0.225000X0.250000X0.225000X-0.250000X0.225000X-0.250000X-0.225000X0*%
%ADD14RoundRect,0.225000X-0.250000X0.225000X-0.250000X-0.225000X0.250000X-0.225000X0.250000X0.225000X0*%
%ADD15RoundRect,0.135000X0.135000X0.185000X-0.135000X0.185000X-0.135000X-0.185000X0.135000X-0.185000X0*%
%ADD16RoundRect,0.140000X-0.219203X-0.021213X-0.021213X-0.219203X0.219203X0.021213X0.021213X0.219203X0*%
%ADD17RoundRect,0.250000X-0.900000X1.000000X-0.900000X-1.000000X0.900000X-1.000000X0.900000X1.000000X0*%
%ADD18RoundRect,0.225000X0.225000X0.250000X-0.225000X0.250000X-0.225000X-0.250000X0.225000X-0.250000X0*%
%ADD19RoundRect,0.140000X0.021213X-0.219203X0.219203X-0.021213X-0.021213X0.219203X-0.219203X0.021213X0*%
%ADD20RoundRect,0.140000X-0.021213X0.219203X-0.219203X0.021213X0.021213X-0.219203X0.219203X-0.021213X0*%
%ADD21O,2.050000X0.590000*%
%ADD22R,1.150000X0.600000*%
%ADD23R,1.150000X0.300000*%
%ADD24RoundRect,0.140000X0.170000X-0.140000X0.170000X0.140000X-0.170000X0.140000X-0.170000X-0.140000X0*%
%ADD25RoundRect,0.225000X-0.225000X-0.250000X0.225000X-0.250000X0.225000X0.250000X-0.225000X0.250000X0*%
%ADD26RoundRect,0.249999X0.000000X0.558616X-0.558616X0.000000X0.000000X-0.558616X0.558616X0.000000X0*%
%ADD27RoundRect,0.050000X0.238649X0.309359X-0.309359X-0.238649X-0.238649X-0.309359X0.309359X0.238649X0*%
%ADD28RoundRect,0.050000X-0.238649X0.309359X-0.309359X0.238649X0.238649X-0.309359X0.309359X-0.238649X0*%
%ADD29RoundRect,0.250000X-0.475000X0.250000X-0.475000X-0.250000X0.475000X-0.250000X0.475000X0.250000X0*%
%ADD30RoundRect,0.135000X-0.135000X-0.185000X0.135000X-0.185000X0.135000X0.185000X-0.135000X0.185000X0*%
%ADD31C,0.200000*%
%ADD32RoundRect,0.135000X0.226274X0.035355X0.035355X0.226274X-0.226274X-0.035355X-0.035355X-0.226274X0*%
%ADD33RoundRect,0.249999X-0.410123X0.000000X0.000000X-0.410123X0.410123X0.000000X0.000000X0.410123X0*%
%ADD34RoundRect,0.062500X-0.309359X0.220971X0.220971X-0.309359X0.309359X-0.220971X-0.220971X0.309359X0*%
%ADD35RoundRect,0.062500X-0.309359X-0.220971X-0.220971X-0.309359X0.309359X0.220971X0.220971X0.309359X0*%
%ADD36R,1.250000X0.300000*%
%ADD37R,3.000000X2.000000*%
%ADD38RoundRect,0.140000X-0.170000X0.140000X-0.170000X-0.140000X0.170000X-0.140000X0.170000X0.140000X0*%
%ADD39RotRect,0.900000X1.000000X135.000000*%
%ADD40RotRect,1.700000X0.550000X135.000000*%
%ADD41RoundRect,0.135000X-0.035355X0.226274X-0.226274X0.035355X0.035355X-0.226274X0.226274X-0.035355X0*%
%ADD42RotRect,1.400000X1.200000X45.000000*%
%ADD43RoundRect,0.140000X-0.140000X-0.170000X0.140000X-0.170000X0.140000X0.170000X-0.140000X0.170000X0*%
%ADD44RoundRect,0.135000X-0.185000X0.135000X-0.185000X-0.135000X0.185000X-0.135000X0.185000X0.135000X0*%
%ADD45RoundRect,0.225000X-0.017678X0.335876X-0.335876X0.017678X0.017678X-0.335876X0.335876X-0.017678X0*%
%ADD46RoundRect,0.375000X0.625000X0.375000X-0.625000X0.375000X-0.625000X-0.375000X0.625000X-0.375000X0*%
%ADD47RoundRect,0.500000X0.500000X1.400000X-0.500000X1.400000X-0.500000X-1.400000X0.500000X-1.400000X0*%
%ADD48RoundRect,0.150000X0.512500X0.150000X-0.512500X0.150000X-0.512500X-0.150000X0.512500X-0.150000X0*%
%ADD49R,0.250000X0.600000*%
%ADD50R,0.600000X0.250000*%
%ADD51R,0.250000X0.750000*%
%ADD52R,0.250000X1.350000*%
%ADD53R,0.250000X1.800000*%
%ADD54RoundRect,0.250000X0.750000X-0.400000X0.750000X0.400000X-0.750000X0.400000X-0.750000X-0.400000X0*%
%ADD55RoundRect,0.250000X0.750000X-0.750000X0.750000X0.750000X-0.750000X0.750000X-0.750000X-0.750000X0*%
%ADD56R,3.000000X6.000000*%
%ADD57R,3.000000X1.600000*%
%ADD58O,0.580000X1.280000*%
%ADD59R,4.300000X3.400000*%
%ADD60RoundRect,0.140000X0.219203X0.021213X0.021213X0.219203X-0.219203X-0.021213X-0.021213X-0.219203X0*%
%ADD61R,1.000000X3.800000*%
%ADD62RoundRect,0.135000X-0.226274X-0.035355X-0.035355X-0.226274X0.226274X0.035355X0.035355X0.226274X0*%
%ADD63R,2.290000X1.520000*%
G04 APERTURE END LIST*
D10*
%TO.C,C98*%
X118525000Y-95000000D03*
X121475000Y-95000000D03*
%TD*%
D11*
%TO.C,R7*%
X133000000Y-57509999D03*
X133000000Y-56490001D03*
%TD*%
D12*
%TO.C,LED18*%
X145500000Y-94500000D03*
X144000000Y-94500000D03*
%TD*%
D13*
%TO.C,C91*%
X105500000Y-86525000D03*
X105500000Y-84975000D03*
%TD*%
D14*
%TO.C,C99*%
X93912099Y-101972353D03*
X93912099Y-103522353D03*
%TD*%
D15*
%TO.C,R93*%
X124010000Y-92000000D03*
X122990000Y-92000000D03*
%TD*%
D16*
%TO.C,C5*%
X136160589Y-73910589D03*
X136839411Y-74589411D03*
%TD*%
D17*
%TO.C,D10*%
X120750000Y-97850000D03*
X120750000Y-102150000D03*
%TD*%
D18*
%TO.C,C94*%
X90275000Y-52750000D03*
X88725000Y-52750000D03*
%TD*%
D19*
%TO.C,C113*%
X92910589Y-76339411D03*
X93589411Y-75660589D03*
%TD*%
D20*
%TO.C,C109*%
X102939411Y-67260589D03*
X102260589Y-67939411D03*
%TD*%
D13*
%TO.C,C93*%
X95000000Y-48775000D03*
X95000000Y-47225000D03*
%TD*%
D21*
%TO.C,U28*%
X114660000Y-86840000D03*
X114660000Y-88120000D03*
X114660000Y-89380000D03*
X114660000Y-90650000D03*
X119800000Y-90650000D03*
X119800000Y-89380000D03*
X119800000Y-88120000D03*
X119800000Y-86840000D03*
%TD*%
D22*
%TO.C,USB2*%
X87860000Y-91800000D03*
X87860000Y-92600000D03*
D23*
X87860000Y-93750000D03*
X87860000Y-94750000D03*
X87860000Y-95250000D03*
X87860000Y-96250000D03*
D22*
X87860000Y-98200000D03*
X87860000Y-97400000D03*
D23*
X87860000Y-96750000D03*
X87860000Y-95750000D03*
X87860000Y-94250000D03*
X87860000Y-93250000D03*
%TD*%
D24*
%TO.C,C118*%
X97000000Y-44230000D03*
X97000000Y-43270000D03*
%TD*%
D11*
%TO.C,R1*%
X139000000Y-57509999D03*
X139000000Y-56490001D03*
%TD*%
D25*
%TO.C,C87*%
X132325000Y-96975000D03*
X133875000Y-96975000D03*
%TD*%
D11*
%TO.C,R94*%
X122000000Y-89260000D03*
X122000000Y-88240000D03*
%TD*%
D20*
%TO.C,C6*%
X134339411Y-76660589D03*
X133660589Y-77339411D03*
%TD*%
D26*
%TO.C,U1*%
X134500000Y-70000000D03*
X133368629Y-68868629D03*
X133368629Y-71131371D03*
X132237258Y-70000000D03*
D27*
X137637786Y-69407798D03*
X137354943Y-69124955D03*
X137072101Y-68842113D03*
X136789258Y-68559270D03*
X136506415Y-68276427D03*
X136223573Y-67993585D03*
X135940730Y-67710742D03*
X135657887Y-67427899D03*
X135375044Y-67145056D03*
X135092202Y-66862214D03*
X134809359Y-66579371D03*
X134526516Y-66296528D03*
X134243674Y-66013686D03*
X133960831Y-65730843D03*
D28*
X132776427Y-65730843D03*
X132493584Y-66013686D03*
X132210742Y-66296528D03*
X131927899Y-66579371D03*
X131645056Y-66862214D03*
X131362214Y-67145056D03*
X131079371Y-67427899D03*
X130796528Y-67710742D03*
X130513685Y-67993585D03*
X130230843Y-68276427D03*
X129948000Y-68559270D03*
X129665157Y-68842113D03*
X129382315Y-69124955D03*
X129099472Y-69407798D03*
D27*
X129099472Y-70592202D03*
X129382315Y-70875045D03*
X129665157Y-71157887D03*
X129948000Y-71440730D03*
X130230843Y-71723573D03*
X130513685Y-72006415D03*
X130796528Y-72289258D03*
X131079371Y-72572101D03*
X131362214Y-72854944D03*
X131645056Y-73137786D03*
X131927899Y-73420629D03*
X132210742Y-73703472D03*
X132493584Y-73986314D03*
X132776427Y-74269157D03*
D28*
X133960831Y-74269157D03*
X134243674Y-73986314D03*
X134526516Y-73703472D03*
X134809359Y-73420629D03*
X135092202Y-73137786D03*
X135375044Y-72854944D03*
X135657887Y-72572101D03*
X135940730Y-72289258D03*
X136223573Y-72006415D03*
X136506415Y-71723573D03*
X136789258Y-71440730D03*
X137072101Y-71157887D03*
X137354943Y-70875045D03*
X137637786Y-70592202D03*
%TD*%
D29*
%TO.C,C89*%
X140300000Y-95675000D03*
X140300000Y-97575000D03*
%TD*%
D30*
%TO.C,R70*%
X129790000Y-102125000D03*
X130810000Y-102125000D03*
%TD*%
D11*
%TO.C,R8*%
X132000000Y-57509999D03*
X132000000Y-56490001D03*
%TD*%
D16*
%TO.C,C114*%
X90410589Y-75410589D03*
X91089411Y-76089411D03*
%TD*%
D15*
%TO.C,R105*%
X120490000Y-93200000D03*
X119470000Y-93200000D03*
%TD*%
D19*
%TO.C,C111*%
X99910589Y-66589411D03*
X100589411Y-65910589D03*
%TD*%
D16*
%TO.C,C8*%
X135410589Y-74660589D03*
X136089411Y-75339411D03*
%TD*%
D31*
%TO.C,U25*%
X95812099Y-102447353D03*
X95812099Y-102047353D03*
X96212099Y-102447353D03*
X96212099Y-102047353D03*
X96612099Y-102447353D03*
X96612099Y-102047353D03*
X97012099Y-102447353D03*
X97012099Y-102047353D03*
%TD*%
D30*
%TO.C,R57*%
X90605000Y-93250000D03*
X91625000Y-93250000D03*
%TD*%
D12*
%TO.C,LED20*%
X145500000Y-90500000D03*
X144000000Y-90500000D03*
%TD*%
D32*
%TO.C,R14*%
X140250000Y-67750000D03*
X139528752Y-67028752D03*
%TD*%
D30*
%TO.C,R71*%
X131840000Y-103125000D03*
X132860000Y-103125000D03*
%TD*%
D32*
%TO.C,R15*%
X140500000Y-66500000D03*
X139778752Y-65778752D03*
%TD*%
D11*
%TO.C,R2*%
X138000000Y-57509999D03*
X138000000Y-56490001D03*
%TD*%
D12*
%TO.C,LED10*%
X145500000Y-98500000D03*
X144000000Y-98500000D03*
%TD*%
D33*
%TO.C,U22*%
X95500000Y-67780152D03*
X94510051Y-68770101D03*
X93520101Y-69760051D03*
X92530152Y-70750000D03*
X96489949Y-68770101D03*
X95500000Y-69760051D03*
X94510051Y-70750000D03*
X93520101Y-71739949D03*
X97479899Y-69760051D03*
X96489949Y-70750000D03*
X95500000Y-71739949D03*
X94510051Y-72729899D03*
X98469848Y-70750000D03*
X97479899Y-71739949D03*
X96489949Y-72729899D03*
X95500000Y-73719848D03*
D34*
X95013864Y-66374777D03*
X94660311Y-66728330D03*
X94306757Y-67081884D03*
X93953204Y-67435437D03*
X93599651Y-67788990D03*
X93246097Y-68142544D03*
X92892544Y-68496097D03*
X92538990Y-68849651D03*
X92185437Y-69203204D03*
X91831884Y-69556757D03*
X91478330Y-69910311D03*
X91124777Y-70263864D03*
D35*
X91124777Y-71236136D03*
X91478330Y-71589689D03*
X91831884Y-71943243D03*
X92185437Y-72296796D03*
X92538990Y-72650349D03*
X92892544Y-73003903D03*
X93246097Y-73357456D03*
X93599651Y-73711010D03*
X93953204Y-74064563D03*
X94306757Y-74418116D03*
X94660311Y-74771670D03*
X95013864Y-75125223D03*
D34*
X95986136Y-75125223D03*
X96339689Y-74771670D03*
X96693243Y-74418116D03*
X97046796Y-74064563D03*
X97400349Y-73711010D03*
X97753903Y-73357456D03*
X98107456Y-73003903D03*
X98461010Y-72650349D03*
X98814563Y-72296796D03*
X99168116Y-71943243D03*
X99521670Y-71589689D03*
X99875223Y-71236136D03*
D35*
X99875223Y-70263864D03*
X99521670Y-69910311D03*
X99168116Y-69556757D03*
X98814563Y-69203204D03*
X98461010Y-68849651D03*
X98107456Y-68496097D03*
X97753903Y-68142544D03*
X97400349Y-67788990D03*
X97046796Y-67435437D03*
X96693243Y-67081884D03*
X96339689Y-66728330D03*
X95986136Y-66374777D03*
%TD*%
D20*
%TO.C,C7*%
X133589411Y-75910589D03*
X132910589Y-76589411D03*
%TD*%
D36*
%TO.C,FPC1*%
X107690000Y-61750000D03*
X107690000Y-62250000D03*
X107690000Y-62750000D03*
X107690000Y-63250000D03*
X107690000Y-63750000D03*
X107690000Y-64250000D03*
X107690000Y-64750000D03*
X107690000Y-65250000D03*
X107690000Y-65750000D03*
X107690000Y-66250000D03*
X107690000Y-66750000D03*
X107690000Y-67250000D03*
X107690000Y-67750000D03*
X107690000Y-68250000D03*
X107690000Y-68750000D03*
X107690000Y-69250000D03*
X107690000Y-69750000D03*
X107690000Y-70250000D03*
X107690000Y-70750000D03*
X107690000Y-71250000D03*
X107690000Y-71750000D03*
X107690000Y-72250000D03*
X107690000Y-72750000D03*
X107690000Y-73250000D03*
X107690000Y-73750000D03*
X107690000Y-74250000D03*
X107690000Y-74750000D03*
X107690000Y-75250000D03*
X107690000Y-75750000D03*
X107690000Y-76250000D03*
X107690000Y-76750000D03*
X107690000Y-77250000D03*
X107690000Y-77750000D03*
X107690000Y-78250000D03*
X107690000Y-78750000D03*
X107690000Y-79250000D03*
X107690000Y-79750000D03*
X107690000Y-80250000D03*
X107690000Y-80750000D03*
X107690000Y-81250000D03*
D37*
X110010000Y-82790000D03*
X110010000Y-60210000D03*
%TD*%
D38*
%TO.C,C81*%
X89365000Y-97270000D03*
X89365000Y-98230000D03*
%TD*%
D20*
%TO.C,C106*%
X86589411Y-65560660D03*
X85910589Y-66239482D03*
%TD*%
D19*
%TO.C,C112*%
X93660589Y-77089411D03*
X94339411Y-76410589D03*
%TD*%
D20*
%TO.C,C96*%
X145839411Y-58160589D03*
X145160589Y-58839411D03*
%TD*%
D24*
%TO.C,C82*%
X89365000Y-92730000D03*
X89365000Y-91770000D03*
%TD*%
D20*
%TO.C,C12*%
X98089411Y-64910589D03*
X97410589Y-65589411D03*
%TD*%
D11*
%TO.C,R107*%
X98250000Y-47000000D03*
X98250000Y-45980000D03*
%TD*%
D20*
%TO.C,C103*%
X137589411Y-75410589D03*
X136910589Y-76089411D03*
%TD*%
D12*
%TO.C,LED19*%
X145500000Y-92500000D03*
X144000000Y-92500000D03*
%TD*%
D18*
%TO.C,C100*%
X95457099Y-99997353D03*
X93907099Y-99997353D03*
%TD*%
D39*
%TO.C,SW1*%
X143383883Y-63515254D03*
X140484746Y-60616117D03*
X144515254Y-62383883D03*
X141616117Y-59484746D03*
D40*
X141492373Y-62507627D03*
%TD*%
D41*
%TO.C,R16*%
X134610624Y-63389376D03*
X133889376Y-64110624D03*
%TD*%
D30*
%TO.C,R111*%
X141240000Y-93500000D03*
X142260000Y-93500000D03*
%TD*%
D42*
%TO.C,X3*%
X88094437Y-68900071D03*
X89650071Y-67344437D03*
X88405563Y-66099929D03*
X86849929Y-67655563D03*
%TD*%
D30*
%TO.C,R116*%
X141240000Y-88500000D03*
X142260000Y-88500000D03*
%TD*%
D20*
%TO.C,C117*%
X95839411Y-64160589D03*
X95160589Y-64839411D03*
%TD*%
D24*
%TO.C,C10*%
X144500000Y-81230000D03*
X144500000Y-80270000D03*
%TD*%
D29*
%TO.C,C84*%
X125050000Y-95675000D03*
X125050000Y-97575000D03*
%TD*%
D20*
%TO.C,C115*%
X91839411Y-73910589D03*
X91160589Y-74589411D03*
%TD*%
D11*
%TO.C,R81*%
X126000000Y-67509999D03*
X126000000Y-66490001D03*
%TD*%
D43*
%TO.C,C86*%
X132090000Y-102125000D03*
X133050000Y-102125000D03*
%TD*%
D12*
%TO.C,LED8*%
X108000000Y-30750000D03*
X108000000Y-32250000D03*
%TD*%
%TO.C,LED7*%
X110000000Y-30750000D03*
X110000000Y-32250000D03*
%TD*%
D30*
%TO.C,R113*%
X141240000Y-91500000D03*
X142260000Y-91500000D03*
%TD*%
D18*
%TO.C,C85*%
X130775000Y-96975000D03*
X129225000Y-96975000D03*
%TD*%
D44*
%TO.C,R11*%
X144250000Y-67740001D03*
X144250000Y-68759999D03*
%TD*%
D20*
%TO.C,C116*%
X97339411Y-64160589D03*
X96660589Y-64839411D03*
%TD*%
D12*
%TO.C,LED2*%
X120000000Y-30750000D03*
X120000000Y-32250000D03*
%TD*%
D11*
%TO.C,R106*%
X98412099Y-102757353D03*
X98412099Y-101737353D03*
%TD*%
D45*
%TO.C,C102*%
X128048008Y-71951992D03*
X126951992Y-73048008D03*
%TD*%
D46*
%TO.C,U31*%
X92650000Y-50550000D03*
X92650000Y-48250000D03*
D47*
X86350000Y-48250000D03*
D46*
X92650000Y-45950000D03*
%TD*%
D48*
%TO.C,U29*%
X115825000Y-95900000D03*
X115825000Y-94950000D03*
X115825000Y-94000000D03*
X113550000Y-94000000D03*
X113550000Y-94950000D03*
X113550000Y-95900000D03*
%TD*%
D30*
%TO.C,R114*%
X141240000Y-90500000D03*
X142260000Y-90500000D03*
%TD*%
D44*
%TO.C,R92*%
X104500000Y-102000000D03*
X104500000Y-103020000D03*
%TD*%
D49*
%TO.C,U24*%
X130800000Y-100625000D03*
X131300000Y-100625000D03*
X131800000Y-100625000D03*
X132300000Y-100625000D03*
D50*
X132950000Y-100205000D03*
X132950000Y-99705000D03*
D51*
X132780000Y-98955000D03*
D50*
X132950000Y-98705000D03*
X132950000Y-99205000D03*
D52*
X132050000Y-98705000D03*
D53*
X131550000Y-98935000D03*
D52*
X131050000Y-98705000D03*
D50*
X130150000Y-98705000D03*
X130150000Y-99205000D03*
D51*
X130320000Y-98955000D03*
D50*
X130150000Y-99705000D03*
X130150000Y-100205000D03*
%TD*%
D29*
%TO.C,C90*%
X135800000Y-95675000D03*
X135800000Y-97575000D03*
%TD*%
D42*
%TO.C,U2*%
X130573223Y-64628858D03*
X132128858Y-63073223D03*
X130926777Y-61871142D03*
X129371142Y-63426777D03*
%TD*%
D54*
%TO.C,RV1*%
X124000000Y-87600000D03*
D55*
X128000000Y-88750000D03*
D54*
X124000000Y-89900000D03*
%TD*%
D30*
%TO.C,R10*%
X90605000Y-95500000D03*
X91625000Y-95500000D03*
%TD*%
D12*
%TO.C,LED5*%
X114000000Y-30750000D03*
X114000000Y-32250000D03*
%TD*%
D46*
%TO.C,U27*%
X103400000Y-88050000D03*
X103400000Y-85750000D03*
D47*
X97100000Y-85750000D03*
D46*
X103400000Y-83450000D03*
%TD*%
D19*
%TO.C,C108*%
X101410589Y-65089411D03*
X102089411Y-64410589D03*
%TD*%
D20*
%TO.C,C104*%
X132339411Y-75660589D03*
X131660589Y-76339411D03*
%TD*%
D15*
%TO.C,R95*%
X118500000Y-93200000D03*
X117480000Y-93200000D03*
%TD*%
D30*
%TO.C,R112*%
X141240000Y-92500000D03*
X142260000Y-92500000D03*
%TD*%
D32*
%TO.C,R13*%
X140000000Y-69000000D03*
X139278752Y-68278752D03*
%TD*%
D20*
%TO.C,C105*%
X129339411Y-72660589D03*
X128660589Y-73339411D03*
%TD*%
%TO.C,C110*%
X101589411Y-68660589D03*
X100910589Y-69339411D03*
%TD*%
D56*
%TO.C,L4*%
X112550000Y-100250000D03*
X116450000Y-100250000D03*
%TD*%
D20*
%TO.C,C107*%
X93589411Y-64160589D03*
X92910589Y-64839411D03*
%TD*%
D16*
%TO.C,C2*%
X127660589Y-64660589D03*
X128339411Y-65339411D03*
%TD*%
D30*
%TO.C,R59*%
X90605000Y-96750000D03*
X91625000Y-96750000D03*
%TD*%
D18*
%TO.C,C92*%
X101025000Y-90250000D03*
X99475000Y-90250000D03*
%TD*%
D57*
%TO.C,CM1*%
X129500000Y-39930000D03*
X129500000Y-37390000D03*
X129500000Y-34840000D03*
X101500000Y-34840000D03*
X101500000Y-37380000D03*
X101500000Y-39920000D03*
X101500000Y-42460000D03*
X101500000Y-45000000D03*
X101500000Y-47540000D03*
X101500000Y-50080000D03*
X101500000Y-52620000D03*
X101500000Y-55160000D03*
%TD*%
D16*
%TO.C,C95*%
X85660589Y-69560660D03*
X86339411Y-70239482D03*
%TD*%
D11*
%TO.C,R4*%
X136000000Y-57509999D03*
X136000000Y-56490001D03*
%TD*%
%TO.C,R108*%
X98250000Y-49000000D03*
X98250000Y-47980000D03*
%TD*%
D12*
%TO.C,LED3*%
X118000000Y-30750000D03*
X118000000Y-32250000D03*
%TD*%
D16*
%TO.C,C4*%
X138910589Y-69410589D03*
X139589411Y-70089411D03*
%TD*%
D58*
%TO.C,U4*%
X144309999Y-72500001D03*
X143029999Y-72500000D03*
X141769999Y-72500000D03*
X140500000Y-72500000D03*
X140500000Y-78520000D03*
X141769999Y-78520000D03*
X143029999Y-78520000D03*
X144309999Y-78519999D03*
D59*
X142399999Y-75510000D03*
%TD*%
D20*
%TO.C,C11*%
X97339411Y-62660589D03*
X96660589Y-63339411D03*
%TD*%
D29*
%TO.C,C83*%
X127300000Y-95675000D03*
X127300000Y-97575000D03*
%TD*%
D60*
%TO.C,C1*%
X129589411Y-67089411D03*
X128910589Y-66410589D03*
%TD*%
D24*
%TO.C,C119*%
X98250000Y-44230000D03*
X98250000Y-43270000D03*
%TD*%
D44*
%TO.C,R91*%
X104500000Y-100000000D03*
X104500000Y-101020000D03*
%TD*%
D25*
%TO.C,C97*%
X109975000Y-96000000D03*
X111525000Y-96000000D03*
%TD*%
D30*
%TO.C,R90*%
X141240000Y-87500000D03*
X142260000Y-87500000D03*
%TD*%
D20*
%TO.C,C9*%
X129089411Y-61160589D03*
X128410589Y-61839411D03*
%TD*%
D61*
%TO.C,L3*%
X130350000Y-93375000D03*
X132750000Y-93375000D03*
%TD*%
D39*
%TO.C,SW16*%
X143883883Y-58015254D03*
X140984746Y-55116117D03*
X145015254Y-56883883D03*
X142116117Y-53984746D03*
D40*
X141992373Y-57007627D03*
%TD*%
D62*
%TO.C,R79*%
X90139376Y-65039447D03*
X90860624Y-65760695D03*
%TD*%
D30*
%TO.C,R9*%
X90605000Y-94500000D03*
X91625000Y-94500000D03*
%TD*%
D11*
%TO.C,R5*%
X135000000Y-57509999D03*
X135000000Y-56490001D03*
%TD*%
%TO.C,R12*%
X144250000Y-70759999D03*
X144250000Y-69740001D03*
%TD*%
D63*
%TO.C,SW15*%
X88000000Y-32460000D03*
X88000000Y-35000000D03*
X88000000Y-37540000D03*
X97000000Y-37540000D03*
X97000000Y-35000000D03*
X97000000Y-32460000D03*
%TD*%
D11*
%TO.C,R3*%
X137000000Y-57509999D03*
X137000000Y-56490001D03*
%TD*%
D12*
%TO.C,LED1*%
X122000000Y-30750000D03*
X122000000Y-32250000D03*
%TD*%
%TO.C,LED23*%
X145500000Y-84500000D03*
X144000000Y-84500000D03*
%TD*%
%TO.C,LED6*%
X112000000Y-30750000D03*
X112000000Y-32250000D03*
%TD*%
D25*
%TO.C,C101*%
X97137099Y-99997353D03*
X98687099Y-99997353D03*
%TD*%
D12*
%TO.C,LED17*%
X145500000Y-96500000D03*
X144000000Y-96500000D03*
%TD*%
D30*
%TO.C,R115*%
X141240000Y-89500000D03*
X142260000Y-89500000D03*
%TD*%
D12*
%TO.C,LED21*%
X145500000Y-88500000D03*
X144000000Y-88500000D03*
%TD*%
%TO.C,LED22*%
X145500000Y-86500000D03*
X144000000Y-86500000D03*
%TD*%
D11*
%TO.C,R6*%
X134000000Y-57509999D03*
X134000000Y-56490001D03*
%TD*%
D12*
%TO.C,LED4*%
X116000000Y-30750000D03*
X116000000Y-32250000D03*
%TD*%
D16*
%TO.C,C3*%
X134660589Y-75410589D03*
X135339411Y-76089411D03*
%TD*%
D29*
%TO.C,C88*%
X138050000Y-95675000D03*
X138050000Y-97575000D03*
%TD*%
M02*
