%TF.GenerationSoftware,KiCad,Pcbnew,9.0.6*%
%TF.CreationDate,2026-03-23T18:07:47+00:00*%
%TF.ProjectId,Recept,52656365-7074-42e6-9b69-6361645f7063,rev?*%
%TF.SameCoordinates,Original*%
%TF.FileFunction,AssemblyDrawing,Bot*%
%FSLAX46Y46*%
G04 Gerber Fmt 4.6, Leading zero omitted, Abs format (unit mm)*
G04 Created by KiCad (PCBNEW 9.0.6) date 2026-03-23 18:07:47*
%MOMM*%
%LPD*%
G01*
G04 APERTURE LIST*
%ADD10C,0.100000*%
G04 APERTURE END LIST*
D10*
%TO.C,USB2*%
X87115000Y-92110000D02*
G75*
G02*
X86465000Y-92110000I-325000J0D01*
G01*
X86465000Y-92110000D02*
G75*
G02*
X87115000Y-92110000I325000J0D01*
G01*
X87115000Y-97890000D02*
G75*
G02*
X86465000Y-97890000I-325000J0D01*
G01*
X86465000Y-97890000D02*
G75*
G02*
X87115000Y-97890000I325000J0D01*
G01*
X87840000Y-90180000D02*
X86740000Y-90180000D01*
X86740000Y-91180000D02*
G75*
G02*
X86740000Y-90180000I0J500000D01*
G01*
X86740000Y-91180000D02*
X87840000Y-91180000D01*
X87840000Y-91180000D02*
G75*
G03*
X87840000Y-90180000I0J500000D01*
G01*
X87840000Y-98820000D02*
X86740000Y-98820000D01*
X86740000Y-99820000D02*
G75*
G02*
X86740000Y-98820000I0J500000D01*
G01*
X86740000Y-99820000D02*
X87840000Y-99820000D01*
X87840000Y-99820000D02*
G75*
G03*
X87840000Y-98820000I0J500000D01*
G01*
X83540000Y-90180000D02*
X82740000Y-90180000D01*
X82740000Y-91180000D02*
G75*
G02*
X82740000Y-90180000I0J500000D01*
G01*
X82740000Y-91180000D02*
X83540000Y-91180000D01*
X83540000Y-91180000D02*
G75*
G03*
X83540000Y-90180000I0J500000D01*
G01*
X83540000Y-98820000D02*
X82740000Y-98820000D01*
X82740000Y-99820000D02*
G75*
G02*
X82740000Y-98820000I0J500000D01*
G01*
X82740000Y-99820000D02*
X83540000Y-99820000D01*
X83540000Y-99820000D02*
G75*
G03*
X83540000Y-98820000I0J500000D01*
G01*
%TD*%
%TO.C,J1*%
X101150000Y-99375000D02*
X101150000Y-101075000D01*
X102850000Y-101075000D01*
X102850000Y-99375000D01*
X101150000Y-99375000D01*
X102850000Y-102765000D02*
G75*
G02*
X101150000Y-102765000I-850000J0D01*
G01*
X101150000Y-102765000D02*
G75*
G02*
X102850000Y-102765000I850000J0D01*
G01*
%TD*%
%TO.C,U22*%
X95750000Y-67143755D02*
G75*
G02*
X95250000Y-67143755I-250000J0D01*
G01*
X95250000Y-67143755D02*
G75*
G02*
X95750000Y-67143755I250000J0D01*
G01*
X94848439Y-68045317D02*
G75*
G02*
X94348439Y-68045317I-250000J0D01*
G01*
X94348439Y-68045317D02*
G75*
G02*
X94848439Y-68045317I250000J0D01*
G01*
X93946878Y-68946878D02*
G75*
G02*
X93446878Y-68946878I-250000J0D01*
G01*
X93446878Y-68946878D02*
G75*
G02*
X93946878Y-68946878I250000J0D01*
G01*
X93045317Y-69848439D02*
G75*
G02*
X92545317Y-69848439I-250000J0D01*
G01*
X92545317Y-69848439D02*
G75*
G02*
X93045317Y-69848439I250000J0D01*
G01*
X92143755Y-70750000D02*
G75*
G02*
X91643755Y-70750000I-250000J0D01*
G01*
X91643755Y-70750000D02*
G75*
G02*
X92143755Y-70750000I250000J0D01*
G01*
X96651561Y-68045317D02*
G75*
G02*
X96151561Y-68045317I-250000J0D01*
G01*
X96151561Y-68045317D02*
G75*
G02*
X96651561Y-68045317I250000J0D01*
G01*
X95750000Y-68946878D02*
G75*
G02*
X95250000Y-68946878I-250000J0D01*
G01*
X95250000Y-68946878D02*
G75*
G02*
X95750000Y-68946878I250000J0D01*
G01*
X94848439Y-69848439D02*
G75*
G02*
X94348439Y-69848439I-250000J0D01*
G01*
X94348439Y-69848439D02*
G75*
G02*
X94848439Y-69848439I250000J0D01*
G01*
X93946878Y-70750000D02*
G75*
G02*
X93446878Y-70750000I-250000J0D01*
G01*
X93446878Y-70750000D02*
G75*
G02*
X93946878Y-70750000I250000J0D01*
G01*
X93045317Y-71651561D02*
G75*
G02*
X92545317Y-71651561I-250000J0D01*
G01*
X92545317Y-71651561D02*
G75*
G02*
X93045317Y-71651561I250000J0D01*
G01*
X97553122Y-68946878D02*
G75*
G02*
X97053122Y-68946878I-250000J0D01*
G01*
X97053122Y-68946878D02*
G75*
G02*
X97553122Y-68946878I250000J0D01*
G01*
X96651561Y-69848439D02*
G75*
G02*
X96151561Y-69848439I-250000J0D01*
G01*
X96151561Y-69848439D02*
G75*
G02*
X96651561Y-69848439I250000J0D01*
G01*
X95750000Y-70750000D02*
G75*
G02*
X95250000Y-70750000I-250000J0D01*
G01*
X95250000Y-70750000D02*
G75*
G02*
X95750000Y-70750000I250000J0D01*
G01*
X91540202Y-70750000D02*
X95500000Y-66790202D01*
X99459798Y-70750000D01*
X95500000Y-74709798D01*
X91540202Y-70750000D01*
X94848439Y-71651561D02*
G75*
G02*
X94348439Y-71651561I-250000J0D01*
G01*
X94348439Y-71651561D02*
G75*
G02*
X94848439Y-71651561I250000J0D01*
G01*
X93946878Y-72553122D02*
G75*
G02*
X93446878Y-72553122I-250000J0D01*
G01*
X93446878Y-72553122D02*
G75*
G02*
X93946878Y-72553122I250000J0D01*
G01*
X98454683Y-69848439D02*
G75*
G02*
X97954683Y-69848439I-250000J0D01*
G01*
X97954683Y-69848439D02*
G75*
G02*
X98454683Y-69848439I250000J0D01*
G01*
X97553122Y-70750000D02*
G75*
G02*
X97053122Y-70750000I-250000J0D01*
G01*
X97053122Y-70750000D02*
G75*
G02*
X97553122Y-70750000I250000J0D01*
G01*
X96651561Y-71651561D02*
G75*
G02*
X96151561Y-71651561I-250000J0D01*
G01*
X96151561Y-71651561D02*
G75*
G02*
X96651561Y-71651561I250000J0D01*
G01*
X95750000Y-72553122D02*
G75*
G02*
X95250000Y-72553122I-250000J0D01*
G01*
X95250000Y-72553122D02*
G75*
G02*
X95750000Y-72553122I250000J0D01*
G01*
X94848439Y-73454683D02*
G75*
G02*
X94348439Y-73454683I-250000J0D01*
G01*
X94348439Y-73454683D02*
G75*
G02*
X94848439Y-73454683I250000J0D01*
G01*
X99356245Y-70750000D02*
G75*
G02*
X98856245Y-70750000I-250000J0D01*
G01*
X98856245Y-70750000D02*
G75*
G02*
X99356245Y-70750000I250000J0D01*
G01*
X98454683Y-71651561D02*
G75*
G02*
X97954683Y-71651561I-250000J0D01*
G01*
X97954683Y-71651561D02*
G75*
G02*
X98454683Y-71651561I250000J0D01*
G01*
X97553122Y-72553122D02*
G75*
G02*
X97053122Y-72553122I-250000J0D01*
G01*
X97053122Y-72553122D02*
G75*
G02*
X97553122Y-72553122I250000J0D01*
G01*
X96651561Y-73454683D02*
G75*
G02*
X96151561Y-73454683I-250000J0D01*
G01*
X96151561Y-73454683D02*
G75*
G02*
X96651561Y-73454683I250000J0D01*
G01*
X95750000Y-74356245D02*
G75*
G02*
X95250000Y-74356245I-250000J0D01*
G01*
X95250000Y-74356245D02*
G75*
G02*
X95750000Y-74356245I250000J0D01*
G01*
%TD*%
%TO.C,J5*%
X130615000Y-51385000D02*
X130615000Y-52385000D01*
X131615000Y-52385000D01*
X131615000Y-51385000D01*
X130615000Y-51385000D01*
X131615000Y-50615000D02*
G75*
G02*
X130615000Y-50615000I-500000J0D01*
G01*
X130615000Y-50615000D02*
G75*
G02*
X131615000Y-50615000I500000J0D01*
G01*
X132885000Y-51885000D02*
G75*
G02*
X131885000Y-51885000I-500000J0D01*
G01*
X131885000Y-51885000D02*
G75*
G02*
X132885000Y-51885000I500000J0D01*
G01*
X132885000Y-50615000D02*
G75*
G02*
X131885000Y-50615000I-500000J0D01*
G01*
X131885000Y-50615000D02*
G75*
G02*
X132885000Y-50615000I500000J0D01*
G01*
%TD*%
%TO.C,SW18*%
X86642500Y-81450000D02*
G75*
G02*
X85122500Y-81450000I-760000J0D01*
G01*
X85122500Y-81450000D02*
G75*
G02*
X86642500Y-81450000I760000J0D01*
G01*
X86642500Y-84000000D02*
G75*
G02*
X85122500Y-84000000I-760000J0D01*
G01*
X85122500Y-84000000D02*
G75*
G02*
X86642500Y-84000000I760000J0D01*
G01*
X86642500Y-86550000D02*
G75*
G02*
X85122500Y-86550000I-760000J0D01*
G01*
X85122500Y-86550000D02*
G75*
G02*
X86642500Y-86550000I760000J0D01*
G01*
%TD*%
%TO.C,U30*%
X135230000Y-33020000D02*
G75*
G02*
X132730000Y-33020000I-1250000J0D01*
G01*
X132730000Y-33020000D02*
G75*
G02*
X135230000Y-33020000I1250000J0D01*
G01*
X140270000Y-32980000D02*
G75*
G02*
X137770000Y-32980000I-1250000J0D01*
G01*
X137770000Y-32980000D02*
G75*
G02*
X140270000Y-32980000I1250000J0D01*
G01*
X140230000Y-38020000D02*
G75*
G02*
X137730000Y-38020000I-1250000J0D01*
G01*
X137730000Y-38020000D02*
G75*
G02*
X140230000Y-38020000I1250000J0D01*
G01*
X135230000Y-38020000D02*
G75*
G02*
X132730000Y-38020000I-1250000J0D01*
G01*
X132730000Y-38020000D02*
G75*
G02*
X135230000Y-38020000I1250000J0D01*
G01*
X137730000Y-35520000D02*
G75*
G02*
X135230000Y-35520000I-1250000J0D01*
G01*
X135230000Y-35520000D02*
G75*
G02*
X137730000Y-35520000I1250000J0D01*
G01*
%TD*%
%TO.C,J4*%
X141195000Y-46135000D02*
X141195000Y-47135000D01*
X142195000Y-47135000D01*
X142195000Y-46135000D01*
X141195000Y-46135000D01*
X142195000Y-45365000D02*
G75*
G02*
X141195000Y-45365000I-500000J0D01*
G01*
X141195000Y-45365000D02*
G75*
G02*
X142195000Y-45365000I500000J0D01*
G01*
X143465000Y-46635000D02*
G75*
G02*
X142465000Y-46635000I-500000J0D01*
G01*
X142465000Y-46635000D02*
G75*
G02*
X143465000Y-46635000I500000J0D01*
G01*
X143465000Y-45365000D02*
G75*
G02*
X142465000Y-45365000I-500000J0D01*
G01*
X142465000Y-45365000D02*
G75*
G02*
X143465000Y-45365000I500000J0D01*
G01*
X144735000Y-46635000D02*
G75*
G02*
X143735000Y-46635000I-500000J0D01*
G01*
X143735000Y-46635000D02*
G75*
G02*
X144735000Y-46635000I500000J0D01*
G01*
X144735000Y-45365000D02*
G75*
G02*
X143735000Y-45365000I-500000J0D01*
G01*
X143735000Y-45365000D02*
G75*
G02*
X144735000Y-45365000I500000J0D01*
G01*
X146005000Y-46635000D02*
G75*
G02*
X145005000Y-46635000I-500000J0D01*
G01*
X145005000Y-46635000D02*
G75*
G02*
X146005000Y-46635000I500000J0D01*
G01*
X146005000Y-45365000D02*
G75*
G02*
X145005000Y-45365000I-500000J0D01*
G01*
X145005000Y-45365000D02*
G75*
G02*
X146005000Y-45365000I500000J0D01*
G01*
%TD*%
%TO.C,J2*%
X131030000Y-44430000D02*
X131030000Y-45430000D01*
X132030000Y-45430000D01*
X132030000Y-44430000D01*
X131030000Y-44430000D01*
X133300000Y-44930000D02*
G75*
G02*
X132300000Y-44930000I-500000J0D01*
G01*
X132300000Y-44930000D02*
G75*
G02*
X133300000Y-44930000I500000J0D01*
G01*
X132030000Y-46200000D02*
G75*
G02*
X131030000Y-46200000I-500000J0D01*
G01*
X131030000Y-46200000D02*
G75*
G02*
X132030000Y-46200000I500000J0D01*
G01*
X133300000Y-46200000D02*
G75*
G02*
X132300000Y-46200000I-500000J0D01*
G01*
X132300000Y-46200000D02*
G75*
G02*
X133300000Y-46200000I500000J0D01*
G01*
X132030000Y-47470000D02*
G75*
G02*
X131030000Y-47470000I-500000J0D01*
G01*
X131030000Y-47470000D02*
G75*
G02*
X132030000Y-47470000I500000J0D01*
G01*
X133300000Y-47470000D02*
G75*
G02*
X132300000Y-47470000I-500000J0D01*
G01*
X132300000Y-47470000D02*
G75*
G02*
X133300000Y-47470000I500000J0D01*
G01*
%TD*%
M02*
