M48
; DRILL file {KiCad 9.0.6} date 2026-03-23T18:08:01+0000
; FORMAT={-:-/ absolute / metric / decimal}
; #@! TF.CreationDate,2026-03-23T18:08:01+00:00
; #@! TF.GenerationSoftware,Kicad,Pcbnew,9.0.6
; #@! TF.FileFunction,Plated,1,4,PTH
FMAT,2
METRIC
; #@! TA.AperFunction,Plated,PTH,ComponentDrill
T1C0.200
; #@! TA.AperFunction,Plated,PTH,ViaDrill
T2C0.300
; #@! TA.AperFunction,Plated,PTH,ViaDrill
T3C0.500
; #@! TA.AperFunction,Plated,PTH,ComponentDrill
T4C0.600
; #@! TA.AperFunction,Plated,PTH,ComponentDrill
T5C0.650
; #@! TA.AperFunction,Plated,PTH,ComponentDrill
T6C0.914
; #@! TA.AperFunction,Plated,PTH,ComponentDrill
T7C1.000
; #@! TA.AperFunction,Plated,PTH,ComponentDrill
T8C1.500
%
G90
G05
T1
X91.894Y-70.75
X92.795Y-69.848
X92.795Y-71.652
X93.697Y-68.947
X93.697Y-70.75
X93.697Y-72.553
X94.598Y-68.045
X94.598Y-69.848
X94.598Y-71.652
X94.598Y-73.455
X95.5Y-67.144
X95.5Y-68.947
X95.5Y-70.75
X95.5Y-72.553
X95.5Y-74.356
X96.402Y-68.045
X96.402Y-69.848
X96.402Y-71.652
X96.402Y-73.455
X97.303Y-68.947
X97.303Y-70.75
X97.303Y-72.553
X98.205Y-69.848
X98.205Y-71.652
X99.106Y-70.75
T2
X85.878Y-68.628
X86.097Y-66.903
X87.5Y-74.5
X87.5Y-76.0
X87.5Y-77.5
X88.0Y-78.75
X88.006Y-73.443
X88.25Y-67.5
X88.5Y-74.5
X88.5Y-76.0
X88.5Y-77.5
X88.6Y-72.75
X88.725Y-55.325
X89.0Y-79.75
X89.0Y-94.23
X89.25Y-73.75
X89.25Y-95.27
X89.399Y-75.0
X89.4Y-72.0
X89.5Y-78.25
X89.899Y-74.077
X90.0Y-80.25
X90.25Y-79.25
X90.343Y-73.593
X90.75Y-77.25
X90.8Y-78.0
X90.835Y-73.162
X91.294Y-68.206
X91.488Y-73.116
X91.5Y-78.0
X91.5Y-79.25
X91.5Y-80.25
X91.651Y-67.662
X91.75Y-64.5
X91.75Y-65.25
X92.0Y-67.0
X92.074Y-75.325
X92.25Y-64.0
X92.25Y-65.75
X92.488Y-74.823
X92.628Y-93.482
X92.687Y-96.884
X92.75Y-60.5
X92.75Y-61.5
X92.75Y-62.5
X92.75Y-63.5
X92.75Y-66.25
X92.75Y-75.418
X93.0Y-79.25
X93.0Y-80.25
X93.0Y-94.5
X93.0Y-95.5
X93.5Y-66.25
X93.5Y-82.2
X93.6Y-59.2
X93.791Y-76.325
X94.012Y-100.947
X94.182Y-79.241
X94.25Y-58.5
X94.25Y-61.75
X94.25Y-65.5
X94.432Y-76.989
X94.5Y-62.5
X94.5Y-63.5
X94.562Y-100.947
X94.75Y-60.0
X94.869Y-102.983
X94.869Y-103.533
X94.869Y-104.083
X95.0Y-57.75
X95.0Y-65.6
X95.124Y-80.5
X95.237Y-76.899
X95.5Y-59.25
X95.75Y-57.0
X95.75Y-65.734
X96.0Y-103.75
X96.132Y-104.618
X96.25Y-58.5
X96.5Y-56.25
X96.6Y-65.7
X96.75Y-75.75
X96.816Y-80.544
X97.0Y-57.75
X97.0Y-104.0
X97.341Y-55.5
X97.75Y-63.5
X97.75Y-75.75
X97.75Y-79.25
X97.927Y-56.88
X97.962Y-100.997
X98.194Y-54.719
X98.218Y-66.968
X98.293Y-65.706
X98.42Y-66.343
X98.512Y-100.997
X98.75Y-56.0
X98.75Y-75.75
X98.874Y-66.809
X99.0Y-54.0
X99.0Y-79.25
X99.0Y-80.25
X99.062Y-100.997
X99.25Y-52.0
X99.25Y-53.0
X99.5Y-51.25
X99.5Y-55.5
X99.5Y-64.911
X99.655Y-67.655
X99.75Y-75.75
X100.379Y-67.629
X100.5Y-64.75
X100.5Y-79.25
X100.5Y-80.25
X100.691Y-66.809
X100.75Y-75.75
X101.0Y-64.25
X101.146Y-67.568
X101.452Y-69.955
X101.663Y-67.162
X101.745Y-76.401
X101.771Y-70.521
X102.0Y-79.25
X102.0Y-80.25
X102.101Y-69.75
X102.212Y-75.786
X102.279Y-71.429
X102.534Y-69.123
X102.683Y-75.338
X102.751Y-69.75
X103.078Y-74.822
X103.2Y-68.5
X103.25Y-51.25
X103.25Y-54.0
X103.251Y-70.75
X103.436Y-71.686
X103.5Y-79.25
X103.5Y-80.25
X103.75Y-51.75
X103.75Y-52.5
X103.75Y-53.25
X103.75Y-101.5
X104.019Y-74.848
X104.043Y-68.75
X104.051Y-68.1
X104.252Y-70.75
X104.263Y-72.276
X104.6Y-67.75
X104.784Y-74.75
X105.0Y-71.701
X105.0Y-79.25
X105.0Y-80.25
X105.1Y-67.25
X105.28Y-74.33
X105.6Y-66.75
X105.667Y-73.247
X105.668Y-72.54
X105.75Y-46.25
X105.75Y-71.75
X105.75Y-79.75
X106.1Y-66.25
X106.104Y-78.354
X106.25Y-30.75
X106.25Y-70.25
X106.25Y-77.5
X106.303Y-62.675
X106.332Y-73.997
X106.332Y-73.29
X106.5Y-79.25
X106.5Y-80.25
X106.6Y-65.75
X108.749Y-64.243
X108.75Y-65.75
X108.75Y-71.75
X108.75Y-73.0
X108.75Y-77.75
X108.858Y-64.884
X109.0Y-79.0
X109.2Y-77.0
X109.25Y-81.27
X109.5Y-75.2
X109.5Y-77.75
X109.5Y-78.5
X109.52Y-64.131
X109.724Y-80.782
X110.0Y-77.25
X110.0Y-94.75
X110.25Y-79.75
X110.25Y-80.4
X110.4Y-63.3
X110.5Y-77.75
X110.5Y-78.5
X110.5Y-94.25
X111.0Y-93.75
X111.25Y-47.0
X112.0Y-88.0
X112.0Y-88.75
X112.25Y-63.5
X112.25Y-87.25
X112.75Y-86.75
X113.25Y-86.25
X113.6Y-67.2
X113.75Y-56.975
X114.0Y-86.0
X114.7Y-83.7
X114.75Y-85.75
X115.0Y-58.025
X117.4Y-94.351
X118.3Y-83.7
X118.3Y-85.3
X119.6Y-60.6
X121.75Y-90.75
X121.8Y-53.4
X122.2Y-66.25
X122.5Y-93.5
X122.8Y-52.2
X123.2Y-54.6
X123.25Y-55.25
X123.75Y-30.75
X123.9Y-55.25
X124.5Y-94.75
X124.55Y-55.25
X124.75Y-58.75
X124.8Y-54.2
X125.0Y-94.4
X125.2Y-55.25
X125.5Y-94.75
X125.85Y-55.25
X126.0Y-60.25
X126.0Y-68.25
X126.75Y-94.75
X126.968Y-69.82
X127.099Y-57.401
X127.183Y-70.433
X127.25Y-36.75
X127.25Y-37.5
X127.25Y-38.25
X127.25Y-66.49
X127.25Y-68.775
X127.25Y-71.25
X127.25Y-94.4
X127.3Y-102.8
X127.48Y-69.383
X127.5Y-65.5
X127.69Y-36.132
X127.75Y-94.75
X127.827Y-38.657
X128.0Y-47.2
X128.55Y-95.875
X128.6Y-95.0
X128.718Y-38.67
X128.829Y-36.093
X129.0Y-74.5
X129.0Y-100.4
X129.2Y-47.6
X129.2Y-94.8
X129.2Y-95.4
X129.55Y-95.875
X129.591Y-38.657
X129.597Y-74.225
X129.6Y-101.266
X129.844Y-36.047
X130.05Y-98.0
X130.05Y-100.755
X130.2Y-95.875
X130.2Y-103.2
X130.322Y-74.065
X130.399Y-69.533
X130.56Y-38.709
X130.69Y-98.21
X130.756Y-35.956
X130.842Y-69.057
X130.938Y-99.848
X131.161Y-74.358
X131.2Y-91.625
X131.2Y-92.875
X131.2Y-93.5
X131.2Y-94.15
X131.2Y-94.775
X131.2Y-95.4
X131.2Y-92.25
X131.452Y-38.657
X131.5Y-35.5
X131.5Y-37.75
X131.786Y-67.964
X131.864Y-72.353
X131.9Y-93.5
X131.9Y-94.775
X131.9Y-91.625
X131.9Y-92.25
X131.9Y-92.875
X131.9Y-94.15
X131.9Y-95.4
X132.0Y-35.0
X132.0Y-37.0
X132.001Y-74.648
X132.135Y-99.859
X132.25Y-58.651
X132.404Y-98.233
X132.43Y-72.919
X132.631Y-101.34
X132.668Y-67.5
X132.75Y-34.75
X132.75Y-36.25
X132.75Y-64.5
X132.8Y-95.875
X132.823Y-100.821
X133.05Y-97.95
X133.25Y-66.5
X133.25Y-67.15
X133.55Y-95.875
X133.75Y-34.75
X133.75Y-36.25
X134.0Y-94.8
X134.05Y-95.4
X134.11Y-72.953
X134.2Y-47.8
X134.452Y-34.641
X134.5Y-36.5
X134.55Y-94.875
X134.55Y-95.875
X134.6Y-72.525
X135.0Y-77.25
X135.037Y-74.213
X135.051Y-34.309
X135.25Y-37.0
X135.25Y-94.75
X135.75Y-94.4
X135.904Y-33.841
X136.25Y-37.25
X136.25Y-94.75
X136.39Y-48.725
X136.5Y-84.0
X136.693Y-73.224
X137.114Y-33.925
X137.25Y-37.25
X137.5Y-94.75
X137.83Y-48.695
X137.868Y-78.132
X138.0Y-34.5
X138.0Y-36.5
X138.0Y-94.4
X138.198Y-76.0
X138.25Y-35.5
X138.5Y-68.279
X138.5Y-94.75
X138.538Y-48.667
X138.75Y-70.5
X138.75Y-92.25
X138.778Y-67.691
X138.924Y-66.424
X139.0Y-90.5
X139.5Y-73.0
X139.75Y-64.25
X139.75Y-94.75
X140.0Y-58.5
X140.0Y-93.5
X140.2Y-49.8
X140.25Y-94.4
X140.75Y-94.75
X141.0Y-57.6
X141.0Y-65.25
X142.2Y-61.8
X143.5Y-80.25
X143.5Y-81.25
X143.566Y-55.434
X144.778Y-87.283
X145.5Y-83.0
X145.5Y-85.5
X145.5Y-87.5
X145.5Y-89.5
X145.5Y-91.5
X145.5Y-93.5
X145.5Y-95.5
X145.5Y-97.5
X145.5Y-100.0
T3
X96.25Y-47.25
X99.5Y-83.2
X105.5Y-45.0
X112.25Y-82.75
X113.0Y-88.75
X114.0Y-78.0
X114.5Y-104.25
X115.261Y-65.239
X116.0Y-104.25
X116.5Y-81.25
X117.5Y-104.25
X119.0Y-104.25
X119.25Y-82.25
X120.5Y-104.25
X121.0Y-78.25
X122.0Y-104.25
X122.5Y-86.0
X123.0Y-95.0
X123.0Y-96.25
X123.0Y-97.5
X123.0Y-98.75
X123.0Y-100.0
X123.0Y-101.25
X123.5Y-104.25
X126.5Y-80.75
X139.0Y-102.25
T5
X86.79Y-92.11
X86.79Y-97.89
X131.115Y-50.615
X131.115Y-51.885
X131.53Y-44.93
X131.53Y-46.2
X131.53Y-47.47
X132.385Y-50.615
X132.385Y-51.885
X132.8Y-44.93
X132.8Y-46.2
X132.8Y-47.47
X141.695Y-45.365
X141.695Y-46.635
X142.965Y-45.365
X142.965Y-46.635
X144.235Y-45.365
X144.235Y-46.635
X145.505Y-45.365
X145.505Y-46.635
T6
X85.882Y-81.45
X85.882Y-84.0
X85.882Y-86.55
T7
X102.0Y-100.225
X102.0Y-102.765
T8
X133.98Y-33.02
X133.98Y-38.02
X136.48Y-35.52
X138.98Y-38.02
X139.02Y-32.98
T4
G00X83.54Y-90.68
M15
G01X82.74Y-90.68
M16
G05
G00X83.54Y-99.32
M15
G01X82.74Y-99.32
M16
G05
G00X87.84Y-90.68
M15
G01X86.74Y-90.68
M16
G05
G00X87.84Y-99.32
M15
G01X86.74Y-99.32
M16
G05
M30
