%TF.GenerationSoftware,KiCad,Pcbnew,9.0.6*%
%TF.CreationDate,2026-03-23T18:07:46+00:00*%
%TF.ProjectId,Recept,52656365-7074-42e6-9b69-6361645f7063,rev?*%
%TF.SameCoordinates,Original*%
%TF.FileFunction,Soldermask,Bot*%
%TF.FilePolarity,Negative*%
%FSLAX46Y46*%
G04 Gerber Fmt 4.6, Leading zero omitted, Abs format (unit mm)*
G04 Created by KiCad (PCBNEW 9.0.6) date 2026-03-23 18:07:46*
%MOMM*%
%LPD*%
G01*
G04 APERTURE LIST*
%ADD10C,0.200000*%
%ADD11C,0.650000*%
%ADD12O,2.100000X1.000000*%
%ADD13O,1.800000X1.000000*%
%ADD14R,1.700000X1.700000*%
%ADD15C,1.700000*%
%ADD16R,1.000000X1.000000*%
%ADD17C,1.000000*%
%ADD18C,1.520000*%
%ADD19C,2.500000*%
G04 APERTURE END LIST*
D10*
G36*
X139390332Y-114025226D02*
G01*
X138052844Y-114512032D01*
X142408624Y-122109034D01*
X140003899Y-122984283D01*
X137826009Y-119185781D01*
X137092715Y-119452679D01*
X138075414Y-123686194D01*
X135477325Y-124631821D01*
X134495773Y-120397888D01*
X133788298Y-120655388D01*
X131333486Y-118216980D01*
X130849441Y-116107987D01*
X133667994Y-116107987D01*
X133924947Y-117262069D01*
X136239588Y-116419609D01*
X135648119Y-115387280D01*
X133667994Y-116107987D01*
X130849441Y-116107987D01*
X130358503Y-113968961D01*
X136929466Y-111577326D01*
X139390332Y-114025226D01*
G37*
G36*
X130017013Y-117436835D02*
G01*
X127556147Y-114988935D01*
X121370766Y-117240229D01*
X122957187Y-120006402D01*
X126274800Y-118798890D01*
X126866269Y-119831218D01*
X124474741Y-120701663D01*
X126061163Y-123467835D01*
X128452690Y-122597391D01*
X129044733Y-123629510D01*
X125727119Y-124837023D01*
X127312967Y-127603404D01*
X133035305Y-125520644D01*
X128679525Y-117923641D01*
X130017013Y-117436835D01*
G37*
G36*
X122872982Y-122956447D02*
G01*
X118268321Y-118369427D01*
X113176571Y-120222673D01*
X114762992Y-122988845D01*
X118131672Y-121762746D01*
X120275466Y-123901865D01*
X120901604Y-126593367D01*
X117532924Y-127819466D01*
X119118772Y-130585847D01*
X124210522Y-128732602D01*
X122872982Y-122956447D01*
G37*
G36*
X113684854Y-123381255D02*
G01*
X111223987Y-120933355D01*
X105038606Y-123184649D01*
X106625028Y-125950822D01*
X109942641Y-124743309D01*
X110534110Y-125775638D01*
X108142582Y-126646083D01*
X109729003Y-129412255D01*
X112120531Y-128541811D01*
X112712573Y-129573930D01*
X109394960Y-130781443D01*
X110980807Y-133547824D01*
X116703145Y-131465063D01*
X112347365Y-123868061D01*
X113684854Y-123381255D01*
G37*
G36*
X105348934Y-126415282D02*
G01*
X104011446Y-126902088D01*
X108367226Y-134499090D01*
X105962501Y-135374338D01*
X103784611Y-131575837D01*
X99746900Y-133045444D01*
X97292088Y-130607036D01*
X96808043Y-128498043D01*
X99626596Y-128498043D01*
X99883549Y-129652125D01*
X102198190Y-128809664D01*
X101606721Y-127777336D01*
X99626596Y-128498043D01*
X96808043Y-128498043D01*
X96317105Y-126359016D01*
X102888068Y-123967381D01*
X105348934Y-126415282D01*
G37*
G36*
X96168406Y-129756721D02*
G01*
X93707540Y-127308820D01*
X87226661Y-129667667D01*
X88813082Y-132433840D01*
X91166166Y-131577387D01*
X95521946Y-139174390D01*
X97926670Y-138299141D01*
X93570890Y-130702139D01*
X96168406Y-129756721D01*
G37*
D11*
%TO.C,USB2*%
X86790000Y-92110000D03*
X86790000Y-97890000D03*
D12*
X87290000Y-90680000D03*
X87290000Y-99320000D03*
D13*
X83140000Y-90680000D03*
X83140000Y-99320000D03*
%TD*%
D14*
%TO.C,J1*%
X102000000Y-100225000D03*
D15*
X102000000Y-102765000D03*
%TD*%
D16*
%TO.C,J5*%
X131115000Y-51885000D03*
D17*
X131115000Y-50615000D03*
X132385000Y-51885000D03*
X132385000Y-50615000D03*
%TD*%
D18*
%TO.C,SW18*%
X85882500Y-81450000D03*
X85882500Y-84000000D03*
X85882500Y-86550000D03*
%TD*%
D19*
%TO.C,U30*%
X133980000Y-33020000D03*
X139020000Y-32980000D03*
X138980000Y-38020000D03*
X133980000Y-38020000D03*
X136480000Y-35520000D03*
%TD*%
D16*
%TO.C,J4*%
X141695000Y-46635000D03*
D17*
X141695000Y-45365000D03*
X142965000Y-46635000D03*
X142965000Y-45365000D03*
X144235000Y-46635000D03*
X144235000Y-45365000D03*
X145505000Y-46635000D03*
X145505000Y-45365000D03*
%TD*%
D16*
%TO.C,J2*%
X131530000Y-44930000D03*
D17*
X132800000Y-44930000D03*
X131530000Y-46200000D03*
X132800000Y-46200000D03*
X131530000Y-47470000D03*
X132800000Y-47470000D03*
%TD*%
M02*
